<svg xmlns="http://www.w3.org/2000/svg" version="1.1" xmlns:xlink="http://www.w3.org/1999/xlink" xmlns:svgjs="http://svgjs.dev/svgjs" width="1000" height="1125" viewBox="0 0 1000 1125"><g transform="matrix(1,0,0,1,1.7053025658242404e-13,0)"><svg viewBox="0 0 320 360" data-background-color="#ffffff" preserveAspectRatio="xMidYMid meet" height="1125" width="1000" xmlns="http://www.w3.org/2000/svg" xmlns:xlink="http://www.w3.org/1999/xlink"><g id="tight-bounds" transform="matrix(1,0,0,1,0,0)"><svg viewBox="0 0 320 360" height="360" width="320"><g><svg></svg></g><g><svg viewBox="0 0 320 360" height="360" width="320"><g><path xmlns="http://www.w3.org/2000/svg" d="M20.961 227.22l3.726 4.658-1.863-6.056c-0.466-2.795-3.726 0.466-1.863 1.398M25.153 224.425c1.397 2.329 2.795 4.658 2.795 6.987 0 3.261 2.795 4.658 5.123 5.589-3.261-3.726-5.124-13.974-7.918-12.576M204.017 26.929c7.918 0 15.371-0.932 23.756 0.931 20.495 5.124 37.729 15.371 49.374 29.811l32.606 52.169c1.397 13.042 4.192 27.482 3.726 43.319 3.261 0 2.795-4.658 6.521-5.59-3.726 9.316-5.59 20.961-6.521 34.469-2.329-7.453 0-18.632 0.466-24.687-3.261 5.124-5.124 1.397-5.124-0.932 0.466-3.726-1.397-3.261-2.795-4.658-5.124-4.658-8.384-9.782-12.11-17.7 2.329-6.055 2.795-14.905-4.658-19.563-2.329-1.397-5.124-3.726-6.521-7.453-1.863-5.124-5.124-11.179-4.193-19.097 0.466-2.329-6.987 5.124-11.179 1.863-18.166-12.576-36.332-27.016-58.224-39.127-11.645 0-20.029-4.192-24.221-9.316-3.726-4.658-0.932-10.713 4.658-11.179 3.261 0 6.987-0.932 9.782 0.932 0.466-1.863 2.329-4.192 4.657-4.192M157.904 16.215l0.932 0.466c4.658 0.932 6.987 7.453 12.11 5.124 0 3.261 0.466 6.521-0.466 8.85-1.397 3.726-5.59 3.726-8.85 3.726-31.208-1.863-49.374 11.179-68.471 22.358-5.124 3.261-10.713 5.59-14.906 9.782-20.029 18.632-41.921 35.866-47.045 70.335l-4.192 38.195c-0.466 4.192-5.124 8.384-4.192 13.508l3.26 22.824c-3.261-3.261-5.124 0.932-4.192 2.795 0.466 1.397 2.329 6.055 5.124 1.863 3.726 6.987 7.453 20.495 12.576 26.55 15.837 18.632 36.332 35.4 53.101 52.169 4.192-0.932 7.453-0.932 8.384-3.727 1.397 2.795-1.397 5.59-3.726 6.056 7.453 4.658 15.837 8.85 27.016 9.781 14.44 0.932 27.948 3.261 40.524 6.522 6.521-1.863 13.042-2.795 20.029-3.261 2.329 0 3.726-3.726 6.521-4.658l0.466-4.658c2.795 4.192 2.329-1.397 0.466-4.192 3.261 2.795 4.192 5.124 5.589 6.987 0-1.397 3.726-6.521 3.727-0.466l0.931-6.055c1.397-0.932 1.863 5.124 3.261 0.931 1.397-4.192 4.192-0.932 6.987-2.329-0.932 1.863-0.466 5.59 2.794 3.261l3.727-3.261c2.329 5.59 6.055 3.261 7.918 2.329 20.495-13.042 40.99-28.413 60.553-43.784l-0.466 6.055 2.329-7.453c2.329 2.329 4.192 0.466 5.124-0.931 2.795-4.658 6.521-9.316 12.577-13.508-7.453 20.029-16.303 35.866-27.482 48.908l-4.658 5.59c0 3.261-0.932 7.453-4.658 7.918-1.863 0.466-5.59-0.932-8.384 1.863-1.397 1.863 3.261 5.59-0.466 2.795-3.261-2.329-6.521 0-10.248 0.932-2.795 0.932 1.863 3.726 2.795 5.589 0.932 1.863 1.863 3.726 1.398 6.056l-5.124-5.59c-6.055 3.261-9.782 9.316-14.906 13.974-2.329 1.863-1.397 5.124-1.397 7.918-3.261 0-6.987-0.932-8.85 0.932-1.397 1.863-0.932 4.658-0.932 7.453-4.658-0.466-5.124-7.453-9.315-6.056-4.192 0.932-8.85 1.397-12.577 3.727 2.795 5.59-4.658 2.329-3.726 3.26-6.987-4.192-13.042-7.453-20.495-4.658-15.837-5.124-35.4-2.795-49.84-0.931 0-2.329 0.466-4.658-0.466-5.124-0.932 2.329-3.726 1.397-3.26 1.397-8.85-6.055-17.7-9.782-27.016-14.905-8.384 0.932-16.303-3.261-18.632-5.59-6.521-6.055-13.974-2.795-20.029-4.192-13.042-3.261-17.7-16.769-19.098-26.084-0.932-4.658-4.658-6.521-6.055-6.056-6.055-19.563-15.371-37.263-22.824-55.429-1.863-4.658-1.397-9.316-1.397-14.44 2.329 0.932 4.658 0.466 4.192-2.794-2.329-15.371-7.918-27.016-13.974-38.195 3.261-15.837 3.726-34.469 11.179-48.443 6.521-12.576 18.632-19.098 27.016-29.811 2.795-3.726 2.795-8.85 5.59-12.11 9.316-9.316 18.632-19.098 28.879-27.482 4.658-3.726 10.247 0 17.234-1.397 2.329-8.384 11.645-15.837 20.495-13.508 3.726 0.932 11.179-8.85 13.508-9.782 3.726-1.397 1.863 3.726 1.863 6.987 8.85-6.987 20.961-10.713 32.14-14.906" fill="#096a2e" fill-rule="nonzero" stroke="none" stroke-width="1" stroke-linecap="butt" stroke-linejoin="miter" stroke-miterlimit="10" stroke-dasharray="" stroke-dashoffset="0" font-family="none" font-weight="none" font-size="none" text-anchor="none" style="mix-blend-mode: normal" data-fill-palette-color="tertiary"></path></g><g transform="matrix(1,0,0,1,64,152.62124051669292)"><svg viewBox="0 0 192 54.75751896661414" height="54.75751896661414" width="192"><g><svg viewBox="0 0 192 54.75751896661414" height="54.75751896661414" width="192"><g><svg viewBox="0 0 192 54.75751896661414" height="54.75751896661414" width="192"><g transform="matrix(1,0,0,1,0,32.54105412514383)"><svg viewBox="0 0 192 22.216464841470312" height="22.216464841470312" width="192"><g id="textblocktransform"><svg viewBox="0 0 192 22.216464841470312" height="22.216464841470312" width="192" id="textblock"><g><svg viewBox="0 0 192 12.594910461828464" height="12.594910461828464" width="192"><g transform="matrix(1,0,0,1,0,0)"><svg width="192" viewBox="4 -34.400001525878906 530.4500122070312 34.80000305175781" height="12.594910461828464" data-palette-color="#096a2e"><path d="M11.95-16.6L25.95 0 21.85 0 8-16.6 21.35-33.7 25.25-33.7 11.95-16.6ZM7.1-33.7L7.1 0 4 0 4-33.7 7.1-33.7ZM34.8-33.7L34.8 0 31.7 0 31.7-33.7 34.8-33.7ZM68.59-18.55L68.59-2.5Q64.65 0.4 58.59 0.4L58.59 0.4Q50.9 0.4 46.22-4.23 41.55-8.85 41.55-16.9L41.55-16.9Q41.55-24.5 46.12-29.4 50.7-34.3 57.7-34.3L57.7-34.3Q63.65-34.3 67.5-31.95L67.5-31.95 67.5-28.5Q63.65-31.2 58.09-31.2L58.09-31.2Q52.2-31.2 48.47-27.28 44.75-23.35 44.75-16.9L44.75-16.9Q44.75-10.25 48.45-6.48 52.15-2.7 58.65-2.7L58.65-2.7Q62.5-2.7 65.5-4.25L65.5-4.25 65.5-15.8 57.55-15.8 57.55-18.55 68.59-18.55ZM82.29-14.2L82.29-14.2 81.54-12.1 94.59-12.1 93.84-14.25 88.14-31.1Q87.49-29.1 82.29-14.2ZM80.59-9.35L77.34 0 73.99 0 85.89-33.7 90.39-33.7 102.04 0 98.69 0 95.49-9.35 80.59-9.35ZM111.04-14.25L111.04 0 107.94 0 107.94-33.7 112.19-33.7 120.79-19.45 130.29-3.65Q130.19-8.85 130.19-19.4L130.19-19.4 130.19-33.7 133.29-33.7 133.29 0 129.04 0 120.49-14.15 110.94-30.05Q111.04-24.65 111.04-14.25L111.04-14.25ZM150.74-33.7L150.74-8.25Q150.74 0 143.39 0L143.39 0Q140.69 0 138.79-1.15L138.79-1.15 138.79-4.3Q140.79-2.95 143.09-2.95L143.09-2.95Q147.64-2.95 147.64-7.75L147.64-7.75 147.64-33.7 150.74-33.7ZM186.78-17L186.78-17Q186.78-9 182.83-4.3 178.88 0.4 172.08 0.4L172.08 0.4Q165.38 0.4 161.31-4.35 157.23-9.1 157.23-17L157.23-17Q157.23-24.95 161.21-29.68 165.18-34.4 171.98-34.4L171.98-34.4Q178.98-34.4 182.88-29.73 186.78-25.05 186.78-17ZM160.43-17L160.43-17Q160.43-10.35 163.61-6.48 166.78-2.6 172.08-2.6L172.08-2.6Q177.58-2.6 180.58-6.43 183.58-10.25 183.58-17L183.58-17Q183.58-23.8 180.56-27.6 177.53-31.4 171.98-31.4L171.98-31.4Q166.58-31.4 163.51-27.58 160.43-23.75 160.43-17ZM223.33-2.85L223.33 0 205.38 0 205.38-33.7 208.48-33.7 208.48-2.85 223.33-2.85ZM235.28-14.2L235.28-14.2 234.53-12.1 247.58-12.1 246.83-14.25 241.13-31.1Q240.48-29.1 235.28-14.2ZM233.58-9.35L230.33 0 226.98 0 238.88-33.7 243.38-33.7 255.03 0 251.68 0 248.48-9.35 233.58-9.35ZM264.03-14.25L264.03 0 260.93 0 260.93-33.7 265.18-33.7 273.78-19.45 283.28-3.65Q283.18-8.85 283.18-19.4L283.18-19.4 283.18-33.7 286.28-33.7 286.28 0 282.03 0 273.48-14.15 263.93-30.05Q264.03-24.65 264.03-14.25L264.03-14.25ZM304.12 0L304.12 0 294.27 0 294.27-33.7 303.87-33.7Q311.27-33.7 316.02-29.1 320.77-24.5 320.77-17.05L320.77-17.05Q320.77-12.5 319.02-8.72 317.27-4.95 313.4-2.48 309.52 0 304.12 0ZM303.87-30.85L303.87-30.85 297.37-30.85 297.37-2.85 304.12-2.85Q307.57-2.85 310.22-4.05 312.87-5.25 314.42-7.3 315.97-9.35 316.75-11.8 317.52-14.25 317.52-17.05L317.52-17.05Q317.52-22.8 313.7-26.83 309.87-30.85 303.87-30.85ZM347.07-30.95L347.07-30.95 342.22-30.95 342.22-16.45 347.67-16.45Q351.37-16.45 353.37-18.5 355.37-20.55 355.37-23.6L355.37-23.6Q355.37-30.95 347.07-30.95ZM347.32-13.7L347.32-13.7 342.22-13.7 342.22 0 339.12 0 339.12-33.7 346.72-33.7Q352.62-33.7 355.54-31.03 358.47-28.35 358.47-23.45L358.47-23.45Q358.37-20.05 356.57-17.6 354.77-15.15 351.47-14.25L351.47-14.25 360.42 0 356.72 0 348.27-13.75Q347.97-13.7 347.32-13.7ZM383.92-2.85L383.92 0 365.67 0 365.67-33.7 383.62-33.7 383.62-30.85 368.77-30.85 368.77-18.25 381.87-18.25 381.87-15.4 368.77-15.4 368.77-2.85 383.92-2.85ZM415.71-18.55L415.71-2.5Q411.76 0.4 405.71 0.4L405.71 0.4Q398.01 0.4 393.34-4.23 388.66-8.85 388.66-16.9L388.66-16.9Q388.66-24.5 393.24-29.4 397.81-34.3 404.81-34.3L404.81-34.3Q410.76-34.3 414.61-31.95L414.61-31.95 414.61-28.5Q410.76-31.2 405.21-31.2L405.21-31.2Q399.31-31.2 395.59-27.28 391.86-23.35 391.86-16.9L391.86-16.9Q391.86-10.25 395.56-6.48 399.26-2.7 405.76-2.7L405.76-2.7Q409.61-2.7 412.61-4.25L412.61-4.25 412.61-15.8 404.66-15.8 404.66-18.55 415.71-18.55ZM426.56-33.7L426.56 0 423.46 0 423.46-33.7 426.56-33.7ZM453.91-8.7L453.91-8.7Q453.91-4.3 450.96-1.98 448.01 0.35 443.41 0.35L443.41 0.35Q438.21 0.35 434.56-1.85L434.56-1.85 434.56-5.3Q436.06-4.15 438.43-3.4 440.81-2.65 443.26-2.65L443.26-2.65Q446.81-2.65 448.78-4.2 450.76-5.75 450.76-8.65L450.76-8.65Q450.76-10.85 449.26-12.23 447.76-13.6 444.91-14.85L444.91-14.85Q444.51-15.05 443.16-15.63 441.81-16.2 441.26-16.45 440.71-16.7 439.56-17.3 438.41-17.9 437.88-18.35 437.36-18.8 436.56-19.55 435.76-20.3 435.41-21.05 435.06-21.8 434.76-22.83 434.46-23.85 434.46-25L434.46-25Q434.46-29.25 437.51-31.63 440.56-34 444.96-34L444.96-34Q449.16-34 451.96-32.5L451.96-32.5 451.96-29.05Q450.76-29.85 448.81-30.4 446.86-30.95 445.01-30.95L445.01-30.95Q441.66-30.95 439.66-29.38 437.66-27.8 437.66-25.2L437.66-25.2Q437.66-23.85 438.18-22.8 438.71-21.75 439.96-20.88 441.21-20 442.13-19.53 443.06-19.05 444.96-18.25L444.96-18.25Q446.71-17.5 447.61-17.07 448.51-16.65 449.91-15.75 451.31-14.85 452.03-13.98 452.76-13.1 453.33-11.73 453.91-10.35 453.91-8.7ZM479.66-33.7L479.66-30.85 470.31-30.85 470.31 0 467.21 0 467.21-30.85 457.91-30.85 457.91-33.7 479.66-33.7ZM492.35-30.95L492.35-30.95 487.5-30.95 487.5-16.45 492.95-16.45Q496.65-16.45 498.65-18.5 500.65-20.55 500.65-23.6L500.65-23.6Q500.65-30.95 492.35-30.95ZM492.6-13.7L492.6-13.7 487.5-13.7 487.5 0 484.4 0 484.4-33.7 492-33.7Q497.9-33.7 500.83-31.03 503.75-28.35 503.75-23.45L503.75-23.45Q503.65-20.05 501.85-17.6 500.05-15.15 496.75-14.25L496.75-14.25 505.7 0 502 0 493.55-13.75Q493.25-13.7 492.6-13.7ZM534.45-33.7L522.95-12.6 522.95 0 519.85 0 519.85-12.6 508.45-33.7 512-33.7 514.65-28.75 521.4-15.75Q521.8-16.7 528.25-28.75L528.25-28.75 530.9-33.7 534.45-33.7Z" opacity="1" transform="matrix(1,0,0,1,0,0)" fill="#096a2e" class="wordmark-text-0" data-fill-palette-color="primary" id="text-0"></path></svg></g></svg></g><g transform="matrix(1,0,0,1,0,14.43281017606032)"><svg viewBox="0 0 192 7.7836546654099905" height="7.7836546654099905" width="192"><g transform="matrix(1,0,0,1,0,0)"><svg width="192" viewBox="2 -40.20000076293945 1318.010009765625 53.400001525878906" height="7.7836546654099905" data-palette-color="#3c3c3c"><path d="M27.8-11.3L28.5-11.3Q27.8-10.65 27.58-9.25 27.35-7.85 27.35-5.1L27.35-5.1 27.35 0 2 0 2-1.25Q2.95-0.95 3.75-0.95L3.75-0.95Q4.7-0.95 5.23-1.48 5.75-2 5.75-3L5.75-3 5.75-34Q5.75-35 5.23-35.52 4.7-36.05 3.75-36.05L3.75-36.05Q2.95-36.05 2-35.75L2-35.75 2-37 25.25-37 25.1-35.55Q24.95-34.6 24.95-33.1L24.95-33.1Q24.95-30.15 25.65-28.5L25.65-28.5 24.85-28.5Q24.3-29.55 24.05-31.25L24.05-31.25Q23.7-33.05 23.1-34.08 22.5-35.1 20.65-35.8 18.8-36.5 15.1-36.5L15.1-36.5Q12.45-36.5 11.25-35.6 10.05-34.7 9.83-33.68 9.6-32.65 9.5-30.75L9.5-30.75 9.5-21.25 16.4-21.25Q17.85-21.25 18.43-21.33 19-21.4 19.3-21.75 19.6-22.1 19.6-22.95L19.6-22.95Q19.6-24.45 19.43-25.2 19.25-25.95 18.4-25.95L18.4-25.95 18.4-26.6 20.35-26.6 20.35-15 18.4-15 18.4-15.7Q19.25-15.7 19.43-16.53 19.6-17.35 19.6-18.9L19.6-18.9Q19.6-19.7 18.93-19.98 18.25-20.25 16.4-20.3L16.4-20.3 9.5-20.3 9.5-6.25Q9.6-4.55 9.9-3.43 10.2-2.3 11.48-1.4 12.75-0.5 15.4-0.5L15.4-0.5Q19.7-0.5 21.95-1.43 24.2-2.35 25-3.73 25.8-5.1 26.4-7.45L26.4-7.45Q27-10 27.8-11.3L27.8-11.3ZM45.34-0.75Q46.19-0.5 46.59-0.5L46.59-0.5Q47.49-0.5 47.74-1.13 47.99-1.75 47.99-3L47.99-3 47.99-22.65 44.54-22.65 44.54-23.4 47.99-23.4 47.99-32.15Q47.99-35.1 48.99-36.9 49.99-38.7 51.34-39.45 52.69-40.2 53.94-40.2L53.94-40.2Q56.24-40.2 57.54-39.08 58.84-37.95 58.84-35.8L58.84-35.8Q58.84-35.2 58.44-33.5L58.44-33.5Q58.39-33.3 58.19-32.43 57.99-31.55 57.99-30.85L57.99-30.85Q57.99-29.05 59.74-29.05L59.74-29.05 59.74-28.55Q57.89-28.55 56.69-30.08 55.49-31.6 55.49-33.8L55.49-33.8Q55.49-34.5 55.64-35.3L55.64-35.3Q55.79-37.1 55.79-37.25L55.79-37.25Q55.79-38.4 55.31-39.08 54.84-39.75 53.59-39.75L53.59-39.75Q52.34-39.75 51.71-38.18 51.09-36.6 51.09-32.15L51.09-32.15 51.09-23.4 55.04-23.4 55.04-22.65 51.09-22.65 51.09-3Q51.09-1.7 51.31-1.1 51.54-0.5 52.34-0.5L52.34-0.5Q52.74-0.5 53.59-0.75L53.59-0.75 53.59 0 45.34 0 45.34-0.75ZM71.58-0.75Q72.43-0.5 72.83-0.5L72.83-0.5Q73.73-0.5 73.98-1.13 74.23-1.75 74.23-3L74.23-3 74.23-22.65 70.78-22.65 70.78-23.4 74.23-23.4 74.23-32.15Q74.23-35.1 75.23-36.9 76.23-38.7 77.58-39.45 78.93-40.2 80.18-40.2L80.18-40.2Q82.48-40.2 83.78-39.08 85.08-37.95 85.08-35.8L85.08-35.8Q85.08-35.2 84.68-33.5L84.68-33.5Q84.63-33.3 84.43-32.43 84.23-31.55 84.23-30.85L84.23-30.85Q84.23-29.05 85.98-29.05L85.98-29.05 85.98-28.55Q84.13-28.55 82.93-30.08 81.73-31.6 81.73-33.8L81.73-33.8Q81.73-34.5 81.88-35.3L81.88-35.3Q82.03-37.1 82.03-37.25L82.03-37.25Q82.03-38.4 81.55-39.08 81.08-39.75 79.83-39.75L79.83-39.75Q78.58-39.75 77.95-38.18 77.33-36.6 77.33-32.15L77.33-32.15 77.33-23.4 81.28-23.4 81.28-22.65 77.33-22.65 77.33-3Q77.33-1.7 77.55-1.1 77.78-0.5 78.58-0.5L78.58-0.5Q78.98-0.5 79.83-0.75L79.83-0.75 79.83 0 71.58 0 71.58-0.75ZM107.97 0.5Q102.67 0.5 100.34-2.88 98.02-6.25 98.02-11.95L98.02-11.95Q98.02-17.2 100.37-20.78 102.72-24.35 107.97-24.35L107.97-24.35Q113.22-24.35 115.59-20.78 117.97-17.2 117.97-11.95L117.97-11.95Q117.97-6.25 115.62-2.88 113.27 0.5 107.97 0.5L107.97 0.5ZM107.97-0.1Q111.37-0.1 112.92-3.38 114.47-6.65 114.47-11.95L114.47-11.95Q114.47-16.9 112.87-20.33 111.27-23.75 107.97-23.75L107.97-23.75Q104.67-23.75 103.09-20.33 101.52-16.9 101.52-11.95L101.52-11.95Q101.52-6.65 103.07-3.38 104.62-0.1 107.97-0.1L107.97-0.1ZM148.4-20.15Q148.4-19.55 148.2-18.8 148-18.05 147.95-17.9L147.95-17.9Q147.55-16.6 147.55-16.15L147.55-16.15Q147.55-15.15 149-15.15L149-15.15 149-14.65Q146.95-14.65 146.08-15.7 145.2-16.75 145.2-18.4L145.2-18.4Q145.2-19.2 145.35-19.95L145.35-19.95Q145.65-21.4 145.65-22.2L145.65-22.2Q145.65-23.05 145.33-23.38 145-23.7 144.3-23.7L144.3-23.7Q142.85-23.7 142.05-20.63 141.25-17.55 141.25-13.45L141.25-13.45 141.25-3Q141.25-1.7 141.48-1.1 141.7-0.5 142.5-0.5L142.5-0.5Q142.9-0.5 143.75-0.75L143.75-0.75 143.75 0 135.5 0 135.5-0.75Q136.35-0.5 136.75-0.5L136.75-0.5Q137.65-0.5 137.9-1.13 138.15-1.75 138.15-3L138.15-3 138.15-20.8Q137.4-20.55 136.55-20.55L136.55-20.55Q136.2-20.55 135.5-20.65L135.5-20.65 135.5-22 135.95-22Q135.95-21.65 136.33-21.4 136.7-21.15 137.2-21.15L137.2-21.15Q137.95-21.15 138.5-21.7 139.05-22.25 139.8-23.35L139.8-23.35 140.3-23.35 140.35-19.3 140.85-19.3Q141.45-21.9 142.53-23.13 143.6-24.35 144.8-24.35L144.8-24.35Q146.55-24.35 147.48-23.05 148.4-21.75 148.4-20.15L148.4-20.15ZM171.24 0.5Q169.39 0.5 168.87-0.93 168.34-2.35 168.34-5.1L168.34-5.1 168.34-7.5 168.34-22.65 165.04-22.65 165.04-23.4 168.34-23.4 168.34-28.75Q169.39-28.75 169.92-29.45 170.44-30.15 170.44-30.9L170.44-30.9 171.49-30.9 171.44-23.4 175.54-23.4 175.54-22.65 171.44-22.65 171.39-5.05Q171.39-3.05 171.77-2.18 172.14-1.3 172.99-1.3L172.99-1.3Q173.99-1.3 174.64-2.2 175.29-3.1 175.62-4.23 175.94-5.35 175.94-6L175.94-6 176.44-6Q176.44-4.6 175.79-3.08 175.14-1.55 173.97-0.53 172.79 0.5 171.24 0.5L171.24 0.5ZM192.48-0.75Q193.33-0.5 193.73-0.5L193.73-0.5Q194.63-0.5 194.88-1.13 195.13-1.75 195.13-3L195.13-3 195.13-37.25Q194.63-37.1 193.98-37.1L193.98-37.1Q193.28-37.1 192.48-37.25L192.48-37.25 192.48-38.6 192.93-38.6Q192.93-38.3 193.46-38.02 193.98-37.75 194.48-37.75L194.48-37.75Q195.63-37.75 196.48-38.38 197.33-39 197.33-40L197.33-40 198.28-40 198.23-3Q198.23-1.7 198.46-1.1 198.68-0.5 199.48-0.5L199.48-0.5Q199.88-0.5 200.73-0.75L200.73-0.75 200.73 0 192.48 0 192.48-0.75ZM227.22 0.5Q222.47 0.5 220.12-2.68 217.77-5.85 217.77-11.95L217.77-11.95Q217.77-15.15 218.77-17.98 219.77-20.8 221.89-22.58 224.02-24.35 227.12-24.35L227.12-24.35Q232.17-24.35 234.32-21.28 236.47-18.2 236.47-13.9L236.47-13.9Q236.47-13.15 236.37-11.95L236.37-11.95 236.32-11.5 221.27-11.5Q221.47-0.3 227.52-0.3L227.52-0.3Q230.22-0.3 231.52-1.95 232.82-3.6 232.82-5.7L232.82-5.7Q232.82-6.55 232.39-6.95 231.97-7.35 231.32-7.35L231.32-7.35Q230.82-7.35 230.44-7.08 230.07-6.8 230.07-6.4L230.07-6.4 229.62-6.4 229.62-7.75 235.97-7.75Q236.12-5.85 235.04-3.95 233.97-2.05 231.92-0.8 229.87 0.45 227.22 0.5L227.22 0.5ZM231.67-12.25Q232.57-12.25 232.74-12.43 232.92-12.6 232.97-13.3L232.97-13.3Q233.02-13.85 233.02-14.95L233.02-14.95Q233.02-18.75 231.62-21.25 230.22-23.75 226.92-23.75L226.92-23.75Q223.72-23.75 222.52-20.6 221.32-17.45 221.27-12.25L221.27-12.25 231.67-12.25ZM261.76 0.5Q257.61 0.5 255.41-2.7L255.41-2.7 254.96 0 254.31 0 254.31-8.95 255.21-8.95Q255.21-4.65 256.61-2.58 258.01-0.5 260.86-0.5L260.86-0.5Q263.21-0.5 264.36-2.13 265.51-3.75 265.51-6.3L265.51-6.3Q265.51-8.35 264.08-9.55 262.66-10.75 259.91-12.05L259.91-12.05Q258.01-12.95 256.91-13.65 255.81-14.35 255.03-15.4 254.26-16.45 254.26-17.95L254.26-17.95Q254.26-21 256.18-22.68 258.11-24.35 261.06-24.35L261.06-24.35Q262.81-24.35 264.38-23.53 265.96-22.7 266.21-21.8L266.21-21.8 266.56-24.35 267.21-24.35 267.21-17.8 266.46-17.8Q266.46-20 265.11-21.75 263.76-23.5 261.56-23.5L261.56-23.5Q257.51-23.5 257.51-19.05L257.51-19.05Q257.51-17.5 258.66-16.55 259.81-15.6 262.31-14.3L262.31-14.3Q264.41-13.2 265.71-12.33 267.01-11.45 267.93-10.05 268.86-8.65 268.86-6.65L268.86-6.65Q268.86-4.95 267.96-3.3 267.06-1.65 265.43-0.58 263.81 0.5 261.76 0.5L261.76 0.5ZM294.4 0.5Q290.25 0.5 288.05-2.7L288.05-2.7 287.6 0 286.95 0 286.95-8.95 287.85-8.95Q287.85-4.65 289.25-2.58 290.65-0.5 293.5-0.5L293.5-0.5Q295.85-0.5 297-2.13 298.15-3.75 298.15-6.3L298.15-6.3Q298.15-8.35 296.72-9.55 295.3-10.75 292.55-12.05L292.55-12.05Q290.65-12.95 289.55-13.65 288.45-14.35 287.67-15.4 286.9-16.45 286.9-17.95L286.9-17.95Q286.9-21 288.82-22.68 290.75-24.35 293.7-24.35L293.7-24.35Q295.45-24.35 297.02-23.53 298.6-22.7 298.85-21.8L298.85-21.8 299.2-24.35 299.85-24.35 299.85-17.8 299.1-17.8Q299.1-20 297.75-21.75 296.4-23.5 294.2-23.5L294.2-23.5Q290.15-23.5 290.15-19.05L290.15-19.05Q290.15-17.5 291.3-16.55 292.45-15.6 294.95-14.3L294.95-14.3Q297.05-13.2 298.35-12.33 299.65-11.45 300.57-10.05 301.5-8.65 301.5-6.65L301.5-6.65Q301.5-4.95 300.6-3.3 299.7-1.65 298.07-0.58 296.45 0.5 294.4 0.5L294.4 0.5ZM383.57-35.75Q382.62-36.05 381.82-36.05L381.82-36.05Q380.87-36.05 380.35-35.52 379.82-35 379.82-34L379.82-34 379.82-3Q379.82-2 380.35-1.48 380.87-0.95 381.82-0.95L381.82-0.95Q382.62-0.95 383.57-1.25L383.57-1.25 383.57 0 372.32 0 372.32-1.25Q373.32-0.95 374.07-0.95L374.07-0.95Q375.02-0.95 375.55-1.48 376.07-2 376.07-3L376.07-3 376.07-35.05 363.77 1 363.02 1 349.62-31.85 349.67-3Q349.67-2.05 350.6-1.5 351.52-0.95 352.87-0.95L352.87-0.95Q353.87-0.95 354.87-1.25L354.87-1.25 354.87 0 343.57 0 343.57-1.25Q344.52-0.95 345.52-0.95L345.52-0.95Q346.82-0.95 347.67-1.5 348.52-2.05 348.52-3L348.52-3 348.52-34Q348.52-34.95 347.82-35.5 347.12-36.05 345.92-36.05L345.92-36.05Q345.07-36.05 344.07-35.75L344.07-35.75 344.07-37 351.82-37 364.72-5.1 375.07-37 383.57-37 383.57-35.75ZM407.21 0.5Q404.41 0.5 402.51-1.23 400.61-2.95 400.61-6.15L400.61-6.15Q400.61-8.45 402.16-10.08 403.71-11.7 405.56-12.3L405.56-12.3Q406.51-12.6 407.79-12.88 409.06-13.15 409.51-13.25L409.51-13.25Q412.01-13.75 413.26-14.18 414.51-14.6 414.76-15.35L414.76-15.35Q414.76-18.95 413.39-21.35 412.01-23.75 408.81-23.75L408.81-23.75Q406.81-23.75 405.84-22.33 404.86-20.9 404.86-18.5L404.86-18.5Q404.86-17.85 405.11-17.57 405.36-17.3 406.26-17.3L406.26-17.3Q406.81-17.3 407.21-17.55 407.61-17.8 407.61-18.15L407.61-18.15 408.06-18.15 408.06-16.8 401.51-16.8Q401.51-18.6 402.56-20.38 403.61-22.15 405.46-23.28 407.31-24.4 409.56-24.4L409.56-24.4Q412.56-24.4 414.39-23.03 416.21-21.65 416.99-19.73 417.76-17.8 417.76-15.9L417.76-15.9 417.76-5.05Q417.76-1.3 419.36-1.3L419.36-1.3Q419.86-1.3 420.29-1.98 420.71-2.65 420.71-3.35L420.71-3.35 421.21-3.35Q421.21-1.5 420.09-0.5 418.96 0.5 417.51 0.5L417.51 0.5Q415.81 0.5 415.29-1 414.76-2.5 414.76-5.2L414.76-5.2 414.76-7.5Q414.76-6.8 414.09-4.85 413.41-2.9 411.71-1.2 410.01 0.5 407.21 0.5L407.21 0.5ZM408.36-0.9Q410.06-0.9 411.51-2.25 412.96-3.6 413.81-5.45 414.66-7.3 414.66-8.55L414.66-8.55 414.66-14.25Q414.66-14.1 414.16-13.95 413.66-13.8 412.91-13.65L412.91-13.65Q409.66-12.8 408.16-12.25L408.16-12.25Q405.81-11.4 404.71-9.88 403.61-8.35 403.61-6.45L403.61-6.45Q403.61-4.25 404.84-2.58 406.06-0.9 408.36-0.9L408.36-0.9ZM458.15-3Q458.15-1.75 458.4-1.13 458.65-0.5 459.55-0.5L459.55-0.5Q459.95-0.5 460.8-0.75L460.8-0.75 460.8 0 452.3 0 452.3-0.75Q453.15-0.5 453.55-0.5L453.55-0.5Q454.35-0.5 454.58-1.1 454.8-1.7 454.8-3L454.8-3 454.8-16.4Q454.8-19.85 453.38-21.8 451.95-23.75 449.65-23.75L449.65-23.75Q447.45-23.75 446.13-22.03 444.8-20.3 444.28-17.95 443.75-15.6 443.75-13.45L443.75-13.45 443.75-3Q443.75-1.7 443.98-1.1 444.2-0.5 445-0.5L445-0.5Q445.4-0.5 446.25-0.75L446.25-0.75 446.25 0 437.75 0 437.75-0.75Q438.6-0.5 439-0.5L439-0.5Q439.9-0.5 440.15-1.13 440.4-1.75 440.4-3L440.4-3 440.4-20.75Q439.65-20.5 438.8-20.5L438.8-20.5Q438.45-20.5 437.75-20.6L437.75-20.6 437.75-21.95 438.2-21.95Q438.2-21.6 438.58-21.35 438.95-21.1 439.45-21.1L439.45-21.1Q440.15-21.1 440.7-21.65 441.25-22.2 442.05-23.35L442.05-23.35 442.95-23.35 443-19.3 443.7-19.3Q444.6-21.55 446.18-22.98 447.75-24.4 450.1-24.4L450.1-24.4Q452-24.4 453.88-23.43 455.75-22.45 456.95-20.63 458.15-18.8 458.15-16.4L458.15-16.4 458.15-3ZM484.44 0.5Q481.64 0.5 479.74-1.23 477.84-2.95 477.84-6.15L477.84-6.15Q477.84-8.45 479.39-10.08 480.94-11.7 482.79-12.3L482.79-12.3Q483.74-12.6 485.01-12.88 486.29-13.15 486.74-13.25L486.74-13.25Q489.24-13.75 490.49-14.18 491.74-14.6 491.99-15.35L491.99-15.35Q491.99-18.95 490.61-21.35 489.24-23.75 486.04-23.75L486.04-23.75Q484.04-23.75 483.06-22.33 482.09-20.9 482.09-18.5L482.09-18.5Q482.09-17.85 482.34-17.57 482.59-17.3 483.49-17.3L483.49-17.3Q484.04-17.3 484.44-17.55 484.84-17.8 484.84-18.15L484.84-18.15 485.29-18.15 485.29-16.8 478.74-16.8Q478.74-18.6 479.79-20.38 480.84-22.15 482.69-23.28 484.54-24.4 486.79-24.4L486.79-24.4Q489.79-24.4 491.61-23.03 493.44-21.65 494.21-19.73 494.99-17.8 494.99-15.9L494.99-15.9 494.99-5.05Q494.99-1.3 496.59-1.3L496.59-1.3Q497.09-1.3 497.51-1.98 497.94-2.65 497.94-3.35L497.94-3.35 498.44-3.35Q498.44-1.5 497.31-0.5 496.19 0.5 494.74 0.5L494.74 0.5Q493.04 0.5 492.51-1 491.99-2.5 491.99-5.2L491.99-5.2 491.99-7.5Q491.99-6.8 491.31-4.85 490.64-2.9 488.94-1.2 487.24 0.5 484.44 0.5L484.44 0.5ZM485.59-0.9Q487.29-0.9 488.74-2.25 490.19-3.6 491.04-5.45 491.89-7.3 491.89-8.55L491.89-8.55 491.89-14.25Q491.89-14.1 491.39-13.95 490.89-13.8 490.14-13.65L490.14-13.65Q486.89-12.8 485.39-12.25L485.39-12.25Q483.04-11.4 481.94-9.88 480.84-8.35 480.84-6.45L480.84-6.45Q480.84-4.25 482.06-2.58 483.29-0.9 485.59-0.9L485.59-0.9ZM532.13-23.4Q531.38-23.6 530.33-22.45L530.33-22.45Q531.63-21.3 532.28-19.6 532.93-17.9 532.93-16L532.93-16Q532.93-12.3 530.9-10 528.88-7.7 524.63-7.7L524.63-7.7Q521.23-7.7 519.13-9.4L519.13-9.4Q518.03-9.1 517.58-8.22 517.13-7.35 517.13-6.5L517.13-6.5Q517.13-4.1 521.48-4.1L521.48-4.1 526.88-4Q531.13-3.95 533.25-1.68 535.38 0.6 535.38 3.7L535.38 3.7Q535.38 6.15 534.03 8.33 532.68 10.5 530.23 11.85 527.78 13.2 524.63 13.2L524.63 13.2Q521.98 13.2 519.75 12.2 517.53 11.2 516.25 9.53 514.98 7.85 514.98 5.85L514.98 5.85Q514.98 4.45 515.73 3.13 516.48 1.8 518.1 0.9 519.73 0 522.23 0L522.23 0 522.23 0.4Q519.73 0.4 518.88 1.85 518.03 3.3 518.03 5.85L518.03 5.85Q518.03 8.55 519.68 10.43 521.33 12.3 524.63 12.3L524.63 12.3Q528.18 12.3 530.15 10.13 532.13 7.95 532.13 4.05L532.13 4.05Q532.13-1.75 522.13-1.75L522.13-1.75Q515.63-1.75 515.63-5.3L515.63-5.3Q515.63-6.6 516.4-7.95 517.18-9.3 518.73-9.8L518.73-9.8Q516.58-12 516.58-16L516.58-16Q516.58-19.5 518.58-21.93 520.58-24.35 524.63-24.35L524.63-24.35Q527.78-24.35 529.88-22.8L529.88-22.8Q530.53-23.45 531.45-23.88 532.38-24.3 533.23-24.3L533.23-24.3Q533.78-24.3 534.03-24.2L534.03-24.2Q534.78-23.95 535.3-23.38 535.83-22.8 535.83-22.15L535.83-22.15Q535.83-21.65 535.43-21.1L535.43-21.1Q534.93-20.45 534.53-20.45L534.53-20.45Q534.18-20.45 533.93-20.8 533.68-21.15 533.33-21.85L533.33-21.85Q532.98-22.6 532.73-22.98 532.48-23.35 532.13-23.4L532.13-23.4ZM524.63-8.3Q527.28-8.3 528.35-10.35 529.43-12.4 529.43-16L529.43-16Q529.43-19.4 528.33-21.58 527.23-23.75 524.63-23.75L524.63-23.75Q522.08-23.75 521.03-21.58 519.98-19.4 519.98-16L519.98-16Q519.98-12.4 521-10.35 522.03-8.3 524.63-8.3L524.63-8.3ZM561.82 0.5Q557.07 0.5 554.72-2.68 552.37-5.85 552.37-11.95L552.37-11.95Q552.37-15.15 553.37-17.98 554.37-20.8 556.49-22.58 558.62-24.35 561.72-24.35L561.72-24.35Q566.77-24.35 568.92-21.28 571.07-18.2 571.07-13.9L571.07-13.9Q571.07-13.15 570.97-11.95L570.97-11.95 570.92-11.5 555.87-11.5Q556.07-0.3 562.12-0.3L562.12-0.3Q564.82-0.3 566.12-1.95 567.42-3.6 567.42-5.7L567.42-5.7Q567.42-6.55 566.99-6.95 566.57-7.35 565.92-7.35L565.92-7.35Q565.42-7.35 565.04-7.08 564.67-6.8 564.67-6.4L564.67-6.4 564.22-6.4 564.22-7.75 570.57-7.75Q570.72-5.85 569.64-3.95 568.57-2.05 566.52-0.8 564.47 0.45 561.82 0.5L561.82 0.5ZM566.27-12.25Q567.17-12.25 567.34-12.43 567.52-12.6 567.57-13.3L567.57-13.3Q567.62-13.85 567.62-14.95L567.62-14.95Q567.62-18.75 566.22-21.25 564.82-23.75 561.52-23.75L561.52-23.75Q558.32-23.75 557.12-20.6 555.92-17.45 555.87-12.25L555.87-12.25 566.27-12.25ZM622.65-3.05Q622.65-1.8 622.9-1.18 623.15-0.55 624.05-0.55L624.05-0.55Q624.45-0.55 625.3-0.8L625.3-0.8 625.3-0.05 616.8-0.05 616.8-0.8Q617.65-0.55 618.05-0.55L618.05-0.55Q618.85-0.55 619.08-1.15 619.3-1.75 619.3-3.05L619.3-3.05 619.3-17.05Q619.3-20.45 617.8-22.13 616.3-23.8 613.95-23.8L613.95-23.8Q612.4-23.8 611.13-22.7 609.85-21.6 609.13-20 608.4-18.4 608.4-17.05L608.4-17.05 608.45-3Q608.45-1.75 608.7-1.13 608.95-0.5 609.85-0.5L609.85-0.5Q610.25-0.5 611.1-0.75L611.1-0.75 611.1 0 602.9 0 602.9-0.75Q603.75-0.5 604.15-0.5L604.15-0.5Q604.95-0.5 605.18-1.1 605.4-1.7 605.4-3L605.4-3 605.4-17Q605.4-20.4 604-22.08 602.6-23.75 600.25-23.75L600.25-23.75Q597.95-23.75 596.63-22 595.3-20.25 594.75-17.55L594.75-17.55 594.75-3Q594.75-1.7 594.98-1.1 595.2-0.5 596-0.5L596-0.5Q596.4-0.5 597.25-0.75L597.25-0.75 597.25 0 588.75 0 588.75-0.75Q589.6-0.5 590-0.5L590-0.5Q590.85-0.5 591.13-1.15 591.4-1.8 591.4-3.05L591.4-3.05 591.4-20.95Q590.45-20.55 589.35-20.55L589.35-20.55Q589.05-20.55 588.35-20.65L588.35-20.65 588.35-22 588.8-22Q588.8-21.65 589.18-21.4 589.55-21.15 590.05-21.15L590.05-21.15Q590.75-21.15 591.3-21.7 591.85-22.25 592.65-23.4L592.65-23.4 593.55-23.4 593.55-19.3 594.4-19.3Q596.4-24.4 600.7-24.4L600.7-24.4Q602.7-24.4 604.5-23.38 606.3-22.35 607.25-20.5L607.25-20.5Q607.6-19.8 607.6-19.3L607.6-19.3 608.1-19.3Q608.4-20.35 609.28-21.55 610.15-22.75 611.48-23.6 612.8-24.45 614.4-24.45L614.4-24.45Q616.3-24.45 618.23-23.48 620.15-22.5 621.4-20.68 622.65-18.85 622.65-16.45L622.65-16.45 622.65-3.05ZM651.79 0.5Q647.04 0.5 644.69-2.68 642.34-5.85 642.34-11.95L642.34-11.95Q642.34-15.15 643.34-17.98 644.34-20.8 646.47-22.58 648.59-24.35 651.69-24.35L651.69-24.35Q656.74-24.35 658.89-21.28 661.04-18.2 661.04-13.9L661.04-13.9Q661.04-13.15 660.94-11.95L660.94-11.95 660.89-11.5 645.84-11.5Q646.04-0.3 652.09-0.3L652.09-0.3Q654.79-0.3 656.09-1.95 657.39-3.6 657.39-5.7L657.39-5.7Q657.39-6.55 656.97-6.95 656.54-7.35 655.89-7.35L655.89-7.35Q655.39-7.35 655.02-7.08 654.64-6.8 654.64-6.4L654.64-6.4 654.19-6.4 654.19-7.75 660.54-7.75Q660.69-5.85 659.62-3.95 658.54-2.05 656.49-0.8 654.44 0.45 651.79 0.5L651.79 0.5ZM656.24-12.25Q657.14-12.25 657.32-12.43 657.49-12.6 657.54-13.3L657.54-13.3Q657.59-13.85 657.59-14.95L657.59-14.95Q657.59-18.75 656.19-21.25 654.79-23.75 651.49-23.75L651.49-23.75Q648.29-23.75 647.09-20.6 645.89-17.45 645.84-12.25L645.84-12.25 656.24-12.25ZM698.73-3Q698.73-1.75 698.98-1.13 699.23-0.5 700.13-0.5L700.13-0.5Q700.53-0.5 701.38-0.75L701.38-0.75 701.38 0 692.88 0 692.88-0.75Q693.73-0.5 694.13-0.5L694.13-0.5Q694.93-0.5 695.16-1.1 695.38-1.7 695.38-3L695.38-3 695.38-16.4Q695.38-19.85 693.96-21.8 692.53-23.75 690.23-23.75L690.23-23.75Q688.03-23.75 686.71-22.03 685.38-20.3 684.86-17.95 684.33-15.6 684.33-13.45L684.33-13.45 684.33-3Q684.33-1.7 684.56-1.1 684.78-0.5 685.58-0.5L685.58-0.5Q685.98-0.5 686.83-0.75L686.83-0.75 686.83 0 678.33 0 678.33-0.75Q679.18-0.5 679.58-0.5L679.58-0.5Q680.48-0.5 680.73-1.13 680.98-1.75 680.98-3L680.98-3 680.98-20.75Q680.23-20.5 679.38-20.5L679.38-20.5Q679.03-20.5 678.33-20.6L678.33-20.6 678.33-21.95 678.78-21.95Q678.78-21.6 679.16-21.35 679.53-21.1 680.03-21.1L680.03-21.1Q680.73-21.1 681.28-21.65 681.83-22.2 682.63-23.35L682.63-23.35 683.53-23.35 683.58-19.3 684.28-19.3Q685.18-21.55 686.76-22.98 688.33-24.4 690.68-24.4L690.68-24.4Q692.58-24.4 694.46-23.43 696.33-22.45 697.53-20.63 698.73-18.8 698.73-16.4L698.73-16.4 698.73-3ZM723.12 0.5Q721.27 0.5 720.75-0.93 720.22-2.35 720.22-5.1L720.22-5.1 720.22-7.5 720.22-22.65 716.92-22.65 716.92-23.4 720.22-23.4 720.22-28.75Q721.27-28.75 721.8-29.45 722.32-30.15 722.32-30.9L722.32-30.9 723.37-30.9 723.32-23.4 727.42-23.4 727.42-22.65 723.32-22.65 723.27-5.05Q723.27-3.05 723.65-2.18 724.02-1.3 724.87-1.3L724.87-1.3Q725.87-1.3 726.52-2.2 727.17-3.1 727.5-4.23 727.82-5.35 727.82-6L727.82-6 728.32-6Q728.32-4.6 727.67-3.08 727.02-1.55 725.85-0.53 724.67 0.5 723.12 0.5L723.12 0.5ZM748.11 4.8Q748.36 4.8 749.11 3.93 749.86 3.05 750.48 1.95 751.11 0.85 751.11 0L751.11 0Q751.11-0.25 751.01-0.55L751.01-0.55Q750.91-0.2 750.53 0.08 750.16 0.35 749.46 0.35L749.46 0.35Q748.41 0.35 747.88-0.23 747.36-0.8 747.36-1.65L747.36-1.65Q747.36-2.65 748.13-3.45 748.91-4.25 750.21-4.25L750.21-4.25Q751.36-4.25 752.08-3.6 752.81-2.95 752.96-2.05L752.96-2.05Q753.01-1.8 753.01-1.25L753.01-1.25Q753.01 0.65 751.76 2.38 750.51 4.1 748.41 5.1L748.41 5.1 748.11 4.8ZM824.39-11.3L825.09-11.3Q824.39-10.65 824.16-9.25 823.94-7.85 823.94-5.1L823.94-5.1 823.94 0 798.59 0 798.59-1.25Q799.54-0.95 800.34-0.95L800.34-0.95Q801.29-0.95 801.81-1.48 802.34-2 802.34-3L802.34-3 802.34-34Q802.34-35 801.81-35.52 801.29-36.05 800.34-36.05L800.34-36.05Q799.54-36.05 798.59-35.75L798.59-35.75 798.59-37 821.84-37 821.69-35.55Q821.54-34.6 821.54-33.1L821.54-33.1Q821.54-30.15 822.24-28.5L822.24-28.5 821.44-28.5Q820.89-29.55 820.64-31.25L820.64-31.25Q820.29-33.05 819.69-34.08 819.09-35.1 817.24-35.8 815.39-36.5 811.69-36.5L811.69-36.5Q809.04-36.5 807.84-35.6 806.64-34.7 806.41-33.68 806.19-32.65 806.09-30.75L806.09-30.75 806.09-21.25 812.99-21.25Q814.44-21.25 815.01-21.33 815.59-21.4 815.89-21.75 816.19-22.1 816.19-22.95L816.19-22.95Q816.19-24.45 816.01-25.2 815.84-25.95 814.99-25.95L814.99-25.95 814.99-26.6 816.94-26.6 816.94-15 814.99-15 814.99-15.7Q815.84-15.7 816.01-16.53 816.19-17.35 816.19-18.9L816.19-18.9Q816.19-19.7 815.51-19.98 814.84-20.25 812.99-20.3L812.99-20.3 806.09-20.3 806.09-6.25Q806.19-4.55 806.49-3.43 806.79-2.3 808.06-1.4 809.34-0.5 811.99-0.5L811.99-0.5Q816.29-0.5 818.54-1.43 820.79-2.35 821.59-3.73 822.39-5.1 822.99-7.45L822.99-7.45Q823.59-10 824.39-11.3L824.39-11.3ZM841.12-0.75Q841.97-0.5 842.37-0.5L842.37-0.5Q843.27-0.5 843.52-1.13 843.77-1.75 843.77-3L843.77-3 843.77-37.25Q843.27-37.1 842.62-37.1L842.62-37.1Q841.92-37.1 841.12-37.25L841.12-37.25 841.12-38.6 841.57-38.6Q841.57-38.3 842.1-38.02 842.62-37.75 843.12-37.75L843.12-37.75Q844.27-37.75 845.12-38.38 845.97-39 845.97-40L845.97-40 846.92-40 846.87-3Q846.87-1.7 847.1-1.1 847.32-0.5 848.12-0.5L848.12-0.5Q848.52-0.5 849.37-0.75L849.37-0.75 849.37 0 841.12 0 841.12-0.75ZM875.86 0.5Q871.11 0.5 868.76-2.68 866.41-5.85 866.41-11.95L866.41-11.95Q866.41-15.15 867.41-17.98 868.41-20.8 870.54-22.58 872.66-24.35 875.76-24.35L875.76-24.35Q880.81-24.35 882.96-21.28 885.11-18.2 885.11-13.9L885.11-13.9Q885.11-13.15 885.01-11.95L885.01-11.95 884.96-11.5 869.91-11.5Q870.11-0.3 876.16-0.3L876.16-0.3Q878.86-0.3 880.16-1.95 881.46-3.6 881.46-5.7L881.46-5.7Q881.46-6.55 881.04-6.95 880.61-7.35 879.96-7.35L879.96-7.35Q879.46-7.35 879.09-7.08 878.71-6.8 878.71-6.4L878.71-6.4 878.26-6.4 878.26-7.75 884.61-7.75Q884.76-5.85 883.69-3.95 882.61-2.05 880.56-0.8 878.51 0.45 875.86 0.5L875.86 0.5ZM880.31-12.25Q881.21-12.25 881.39-12.43 881.56-12.6 881.61-13.3L881.61-13.3Q881.66-13.85 881.66-14.95L881.66-14.95Q881.66-18.75 880.26-21.25 878.86-23.75 875.56-23.75L875.56-23.75Q872.36-23.75 871.16-20.6 869.96-17.45 869.91-12.25L869.91-12.25 880.31-12.25ZM914.9-23.35L922.55-23.35 922.55-22.6Q922-22.8 921.45-22.8L921.45-22.8Q920.25-22.8 919.43-22.03 918.6-21.25 918.35-20.45L918.35-20.45 911.9 0 909.1 0 903-20.05Q902.4-22.75 900.5-22.75L900.5-22.75Q899.95-22.75 899.4-22.6L899.4-22.6 899.4-23.35 908.15-23.35 908.15-22.6Q907.4-22.75 906.9-22.75L906.9-22.75Q906.25-22.75 905.93-22.5 905.6-22.25 905.6-21.85L905.6-21.85Q905.6-21.7 905.7-21.4L905.7-21.4 911.5-1.4 917.55-20.45Q917.7-21 917.7-21.45L917.7-21.45Q917.7-22.85 916.25-22.85L916.25-22.85Q915.6-22.85 914.9-22.6L914.9-22.6 914.9-23.35ZM942.69 0.5Q939.89 0.5 937.99-1.23 936.09-2.95 936.09-6.15L936.09-6.15Q936.09-8.45 937.64-10.08 939.19-11.7 941.04-12.3L941.04-12.3Q941.99-12.6 943.26-12.88 944.54-13.15 944.99-13.25L944.99-13.25Q947.49-13.75 948.74-14.18 949.99-14.6 950.24-15.35L950.24-15.35Q950.24-18.95 948.86-21.35 947.49-23.75 944.29-23.75L944.29-23.75Q942.29-23.75 941.31-22.33 940.34-20.9 940.34-18.5L940.34-18.5Q940.34-17.85 940.59-17.57 940.84-17.3 941.74-17.3L941.74-17.3Q942.29-17.3 942.69-17.55 943.09-17.8 943.09-18.15L943.09-18.15 943.54-18.15 943.54-16.8 936.99-16.8Q936.99-18.6 938.04-20.38 939.09-22.15 940.94-23.28 942.79-24.4 945.04-24.4L945.04-24.4Q948.04-24.4 949.86-23.03 951.69-21.65 952.46-19.73 953.24-17.8 953.24-15.9L953.24-15.9 953.24-5.05Q953.24-1.3 954.84-1.3L954.84-1.3Q955.34-1.3 955.76-1.98 956.19-2.65 956.19-3.35L956.19-3.35 956.69-3.35Q956.69-1.5 955.56-0.5 954.44 0.5 952.99 0.5L952.99 0.5Q951.29 0.5 950.76-1 950.24-2.5 950.24-5.2L950.24-5.2 950.24-7.5Q950.24-6.8 949.56-4.85 948.89-2.9 947.19-1.2 945.49 0.5 942.69 0.5L942.69 0.5ZM943.84-0.9Q945.54-0.9 946.99-2.25 948.44-3.6 949.29-5.45 950.14-7.3 950.14-8.55L950.14-8.55 950.14-14.25Q950.14-14.1 949.64-13.95 949.14-13.8 948.39-13.65L948.39-13.65Q945.14-12.8 943.64-12.25L943.64-12.25Q941.29-11.4 940.19-9.88 939.09-8.35 939.09-6.45L939.09-6.45Q939.09-4.25 940.31-2.58 941.54-0.9 943.84-0.9L943.84-0.9ZM978.43 0.5Q976.58 0.5 976.05-0.93 975.53-2.35 975.53-5.1L975.53-5.1 975.53-7.5 975.53-22.65 972.23-22.65 972.23-23.4 975.53-23.4 975.53-28.75Q976.58-28.75 977.1-29.45 977.63-30.15 977.63-30.9L977.63-30.9 978.68-30.9 978.63-23.4 982.73-23.4 982.73-22.65 978.63-22.65 978.58-5.05Q978.58-3.05 978.95-2.18 979.33-1.3 980.18-1.3L980.18-1.3Q981.18-1.3 981.83-2.2 982.48-3.1 982.8-4.23 983.13-5.35 983.13-6L983.13-6 983.63-6Q983.63-4.6 982.98-3.08 982.33-1.55 981.15-0.53 979.98 0.5 978.43 0.5L978.43 0.5ZM1010.12 0.5Q1005.37 0.5 1003.02-2.68 1000.67-5.85 1000.67-11.95L1000.67-11.95Q1000.67-15.15 1001.67-17.98 1002.67-20.8 1004.79-22.58 1006.92-24.35 1010.02-24.35L1010.02-24.35Q1015.07-24.35 1017.22-21.28 1019.37-18.2 1019.37-13.9L1019.37-13.9Q1019.37-13.15 1019.27-11.95L1019.27-11.95 1019.22-11.5 1004.17-11.5Q1004.37-0.3 1010.42-0.3L1010.42-0.3Q1013.12-0.3 1014.42-1.95 1015.72-3.6 1015.72-5.7L1015.72-5.7Q1015.72-6.55 1015.29-6.95 1014.87-7.35 1014.22-7.35L1014.22-7.35Q1013.72-7.35 1013.34-7.08 1012.97-6.8 1012.97-6.4L1012.97-6.4 1012.52-6.4 1012.52-7.75 1018.87-7.75Q1019.02-5.85 1017.94-3.95 1016.87-2.05 1014.82-0.8 1012.77 0.45 1010.12 0.5L1010.12 0.5ZM1014.57-12.25Q1015.47-12.25 1015.64-12.43 1015.82-12.6 1015.87-13.3L1015.87-13.3Q1015.92-13.85 1015.92-14.95L1015.92-14.95Q1015.92-18.75 1014.52-21.25 1013.12-23.75 1009.82-23.75L1009.82-23.75Q1006.62-23.75 1005.42-20.6 1004.22-17.45 1004.17-12.25L1004.17-12.25 1014.57-12.25ZM1046.41 0.5Q1041.76 0.5 1039.71-3.28 1037.66-7.05 1037.66-12.9L1037.66-12.9Q1037.66-16 1038.66-18.6 1039.66-21.2 1041.63-22.78 1043.61-24.35 1046.46-24.35L1046.46-24.35Q1048.86-24.35 1050.61-22.95 1052.36-21.55 1053.41-19.3L1053.41-19.3 1054.21-19.3 1054.26-32.35 1054.26-37.4Q1053.51-37.15 1052.66-37.15L1052.66-37.15Q1052.31-37.15 1051.61-37.25L1051.61-37.25 1051.61-38.6 1052.06-38.6Q1052.06-38.25 1052.43-38 1052.81-37.75 1053.31-37.75L1053.31-37.75Q1054.06-37.75 1054.83-38.43 1055.61-39.1 1056.26-40L1056.26-40 1056.96-40 1056.96-1.95Q1057.06-0.5 1058.11-0.5L1058.11-0.5Q1058.71-0.5 1059.41-0.75L1059.41-0.75 1059.41 0 1055.16 0 1054.01-3.65 1053.11-3.65Q1051.06 0.5 1046.41 0.5L1046.41 0.5ZM1047.31-0.4Q1050.91-0.4 1052.26-3.68 1053.61-6.95 1053.61-12.1L1053.61-12.1Q1053.61-14.5 1052.93-17.2 1052.26-19.9 1050.81-21.83 1049.36-23.75 1047.21-23.75L1047.21-23.75Q1044.11-23.75 1042.63-20.4 1041.16-17.05 1041.16-12.15L1041.16-12.15Q1041.16-7.15 1042.61-3.78 1044.06-0.4 1047.31-0.4L1047.31-0.4ZM1131.38-0.9Q1129.63 0.7 1126.48 0.7L1126.48 0.7Q1124.48 0.7 1123.51-0.43 1122.53-1.55 1122.21-3.23 1121.88-4.9 1121.68-7.85L1121.68-7.85Q1121.43-11.6 1120.91-13.9 1120.38-16.2 1118.61-17.82 1116.83-19.45 1113.18-19.45L1113.18-19.45 1111.58-19.45 1111.58-20.15Q1116.28-20.15 1118.86-20.98 1121.43-21.8 1122.51-23.6 1123.58-25.4 1123.58-28.6L1123.58-28.6Q1123.58-31.9 1121.11-34.2 1118.63-36.5 1113.13-36.5L1113.13-36.5Q1111.63-36.5 1110.03-36.1L1110.03-36.1 1109.98-3Q1109.98-0.95 1111.93-0.95L1111.93-0.95Q1112.68-0.95 1113.63-1.25L1113.63-1.25 1113.63 0 1102.48 0 1102.48-1.25Q1103.43-0.95 1104.23-0.95L1104.23-0.95Q1105.18-0.95 1105.71-1.48 1106.23-2 1106.23-3L1106.23-3 1106.23-34Q1106.23-35 1105.71-35.52 1105.18-36.05 1104.23-36.05L1104.23-36.05Q1103.43-36.05 1102.48-35.75L1102.48-35.75 1102.48-37 1115.33-37Q1120.68-37 1124.23-34.85 1127.78-32.7 1127.78-28.2L1127.78-28.2Q1127.78-26.1 1126.78-24.25 1125.78-22.4 1123.71-21.18 1121.63-19.95 1118.58-19.75L1118.58-19.75Q1121.48-19.75 1122.93-18.18 1124.38-16.6 1124.88-14.38 1125.38-12.15 1125.63-8.6L1125.63-8.6Q1125.88-5.05 1126.36-3.23 1126.83-1.4 1128.28-0.85L1128.28-0.85Q1128.68-0.7 1129.13-0.7L1129.13-0.7Q1130.18-0.7 1131.38-1.65L1131.38-1.65 1131.38-0.9ZM1156.37 0.5Q1151.62 0.5 1149.27-2.68 1146.92-5.85 1146.92-11.95L1146.92-11.95Q1146.92-15.15 1147.92-17.98 1148.92-20.8 1151.05-22.58 1153.17-24.35 1156.27-24.35L1156.27-24.35Q1161.32-24.35 1163.47-21.28 1165.62-18.2 1165.62-13.9L1165.62-13.9Q1165.62-13.15 1165.52-11.95L1165.52-11.95 1165.47-11.5 1150.42-11.5Q1150.62-0.3 1156.67-0.3L1156.67-0.3Q1159.37-0.3 1160.67-1.95 1161.97-3.6 1161.97-5.7L1161.97-5.7Q1161.97-6.55 1161.55-6.95 1161.12-7.35 1160.47-7.35L1160.47-7.35Q1159.97-7.35 1159.6-7.08 1159.22-6.8 1159.22-6.4L1159.22-6.4 1158.77-6.4 1158.77-7.75 1165.12-7.75Q1165.27-5.85 1164.2-3.95 1163.12-2.05 1161.07-0.8 1159.02 0.45 1156.37 0.5L1156.37 0.5ZM1160.82-12.25Q1161.72-12.25 1161.9-12.43 1162.07-12.6 1162.12-13.3L1162.12-13.3Q1162.17-13.85 1162.17-14.95L1162.17-14.95Q1162.17-18.75 1160.77-21.25 1159.37-23.75 1156.07-23.75L1156.07-23.75Q1152.87-23.75 1151.67-20.6 1150.47-17.45 1150.42-12.25L1150.42-12.25 1160.82-12.25ZM1190.91 0.5Q1186.76 0.5 1184.56-2.7L1184.56-2.7 1184.11 0 1183.46 0 1183.46-8.95 1184.36-8.95Q1184.36-4.65 1185.76-2.58 1187.16-0.5 1190.01-0.5L1190.01-0.5Q1192.36-0.5 1193.51-2.13 1194.66-3.75 1194.66-6.3L1194.66-6.3Q1194.66-8.35 1193.23-9.55 1191.81-10.75 1189.06-12.05L1189.06-12.05Q1187.16-12.95 1186.06-13.65 1184.96-14.35 1184.18-15.4 1183.41-16.45 1183.41-17.95L1183.41-17.95Q1183.41-21 1185.33-22.68 1187.26-24.35 1190.21-24.35L1190.21-24.35Q1191.96-24.35 1193.53-23.53 1195.11-22.7 1195.36-21.8L1195.36-21.8 1195.71-24.35 1196.36-24.35 1196.36-17.8 1195.61-17.8Q1195.61-20 1194.26-21.75 1192.91-23.5 1190.71-23.5L1190.71-23.5Q1186.66-23.5 1186.66-19.05L1186.66-19.05Q1186.66-17.5 1187.81-16.55 1188.96-15.6 1191.46-14.3L1191.46-14.3Q1193.56-13.2 1194.86-12.33 1196.16-11.45 1197.08-10.05 1198.01-8.65 1198.01-6.65L1198.01-6.65Q1198.01-4.95 1197.11-3.3 1196.21-1.65 1194.58-0.58 1192.96 0.5 1190.91 0.5L1190.91 0.5ZM1223.85 0.5Q1222 0.5 1220.4-0.48 1218.8-1.45 1217.87-3.25 1216.95-5.05 1216.95-7.5L1216.95-7.5 1216.9-21.05 1216.15-21Q1215.85-21 1215.05-21.1L1215.05-21.1 1215.05-22.45 1215.5-22.45Q1215.5-22.1 1215.87-21.85 1216.25-21.6 1216.75-21.6L1216.75-21.6Q1217.45-21.6 1218-22.15 1218.55-22.7 1219.35-23.85L1219.35-23.85 1220.25-23.85 1220.25-23.45 1220.2-6.9Q1220.2-3.3 1221.15-1.73 1222.1-0.15 1224.3-0.15L1224.3-0.15Q1226.55-0.15 1228.15-1.63 1229.75-3.1 1230.52-5.35 1231.3-7.6 1231.3-9.95L1231.3-9.95 1231.3-21.05 1230.55-21Q1230.25-21 1229.45-21.1L1229.45-21.1 1229.45-22.45 1229.9-22.45Q1229.9-22.1 1230.27-21.85 1230.65-21.6 1231.15-21.6L1231.15-21.6Q1231.85-21.6 1232.4-22.15 1232.95-22.7 1233.75-23.85L1233.75-23.85 1234.65-23.85 1234.65-3Q1234.65-1.7 1234.87-1.1 1235.1-0.5 1235.9-0.5L1235.9-0.5Q1236.3-0.5 1237.15-0.75L1237.15-0.75 1237.15 0 1231.7 0 1231.7-4.95 1231.2-4.95Q1230.05-2.6 1228.2-1.05 1226.35 0.5 1223.85 0.5L1223.85 0.5ZM1253.19-0.75Q1254.04-0.5 1254.44-0.5L1254.44-0.5Q1255.34-0.5 1255.59-1.13 1255.84-1.75 1255.84-3L1255.84-3 1255.84-37.25Q1255.34-37.1 1254.69-37.1L1254.69-37.1Q1253.99-37.1 1253.19-37.25L1253.19-37.25 1253.19-38.6 1253.64-38.6Q1253.64-38.3 1254.16-38.02 1254.69-37.75 1255.19-37.75L1255.19-37.75Q1256.34-37.75 1257.19-38.38 1258.04-39 1258.04-40L1258.04-40 1258.99-40 1258.94-3Q1258.94-1.7 1259.16-1.1 1259.39-0.5 1260.19-0.5L1260.19-0.5Q1260.59-0.5 1261.44-0.75L1261.44-0.75 1261.44 0 1253.19 0 1253.19-0.75ZM1283.17 0.5Q1281.32 0.5 1280.8-0.93 1280.27-2.35 1280.27-5.1L1280.27-5.1 1280.27-7.5 1280.27-22.65 1276.97-22.65 1276.97-23.4 1280.27-23.4 1280.27-28.75Q1281.32-28.75 1281.85-29.45 1282.37-30.15 1282.37-30.9L1282.37-30.9 1283.42-30.9 1283.37-23.4 1287.47-23.4 1287.47-22.65 1283.37-22.65 1283.32-5.05Q1283.32-3.05 1283.7-2.18 1284.07-1.3 1284.92-1.3L1284.92-1.3Q1285.92-1.3 1286.57-2.2 1287.22-3.1 1287.55-4.23 1287.87-5.35 1287.87-6L1287.87-6 1288.37-6Q1288.37-4.6 1287.72-3.08 1287.07-1.55 1285.9-0.53 1284.72 0.5 1283.17 0.5L1283.17 0.5ZM1312.91 0.5Q1308.76 0.5 1306.56-2.7L1306.56-2.7 1306.11 0 1305.46 0 1305.46-8.95 1306.36-8.95Q1306.36-4.65 1307.76-2.58 1309.16-0.5 1312.01-0.5L1312.01-0.5Q1314.36-0.5 1315.51-2.13 1316.66-3.75 1316.66-6.3L1316.66-6.3Q1316.66-8.35 1315.24-9.55 1313.81-10.75 1311.06-12.05L1311.06-12.05Q1309.16-12.95 1308.06-13.65 1306.96-14.35 1306.19-15.4 1305.41-16.45 1305.41-17.95L1305.41-17.95Q1305.41-21 1307.34-22.68 1309.26-24.35 1312.21-24.35L1312.21-24.35Q1313.96-24.35 1315.54-23.53 1317.11-22.7 1317.36-21.8L1317.36-21.8 1317.71-24.35 1318.36-24.35 1318.36-17.8 1317.61-17.8Q1317.61-20 1316.26-21.75 1314.91-23.5 1312.71-23.5L1312.71-23.5Q1308.66-23.5 1308.66-19.05L1308.66-19.05Q1308.66-17.5 1309.81-16.55 1310.96-15.6 1313.46-14.3L1313.46-14.3Q1315.56-13.2 1316.86-12.33 1318.16-11.45 1319.09-10.05 1320.01-8.65 1320.01-6.65L1320.01-6.65Q1320.01-4.95 1319.11-3.3 1318.21-1.65 1316.59-0.58 1314.96 0.5 1312.91 0.5L1312.91 0.5Z" opacity="1" transform="matrix(1,0,0,1,0,0)" fill="#3c3c3c" class="slogan-text-1" data-fill-palette-color="secondary" id="text-1"></path></svg></g></svg></g></svg></g></svg></g><g transform="matrix(1,0,0,1,67.48573216897341,0)"><svg viewBox="0 0 57.02853566205319 30.703154410911974" height="30.703154410911974" width="57.02853566205319"><g><svg xmlns="http://www.w3.org/2000/svg" xmlns:xlink="http://www.w3.org/1999/xlink" version="1.1" x="0" y="0" viewBox="6.141999244689941 22.237001419067383 88.50401306152344 47.64899444580078" enable-background="new 0 0 100 100" xml:space="preserve" height="30.703154410911974" width="57.02853566205319" class="icon-icon-0" data-fill-palette-color="accent" id="icon-0"><polygon points="50.827,46.708 50.827,43.066 49.962,43.066 49.962,46.708 13.261,46.708 13.261,49.169 14.126,49.169   14.126,47.573 31.614,47.573 31.614,49.169 32.479,49.169 32.479,47.573 49.962,47.573 49.962,49.169 50.827,49.169 50.827,47.573   68.766,47.573 68.766,49.169 69.631,49.169 69.631,47.573 86.752,47.573 86.752,49.169 87.617,49.169 87.617,46.708 " fill="#398378" data-fill-palette-color="accent"></polygon><circle cx="50.71" cy="54.013" r="3.4" fill="#398378" data-fill-palette-color="accent"></circle><path d="M45.141 69.885l0.191-2.883 0.695 0.018-0.048 2.866h9.017l-0.074-2.899h0.716l0.302 2.899h2.14l-1.217-9.748c-0.116-0.928-0.904-1.624-1.839-1.625l-9.132-0.01c-0.96-0.001-1.762 0.731-1.849 1.687l-0.885 9.696H45.141z" fill="#398378" data-fill-palette-color="accent"></path><circle cx="32.047" cy="54.013" r="3.4" fill="#398378" data-fill-palette-color="accent"></circle><path d="M26.478 69.885l0.191-2.883 0.695 0.018-0.048 2.866h9.017l-0.074-2.899h0.716l0.302 2.899h2.14l-1.217-9.748c-0.116-0.928-0.904-1.624-1.839-1.625l-9.132-0.01c-0.96-0.001-1.762 0.731-1.849 1.687l-0.885 9.696H26.478z" fill="#398378" data-fill-palette-color="accent"></path><circle cx="69.198" cy="54.013" r="3.4" fill="#398378" data-fill-palette-color="accent"></circle><path d="M63.629 69.885l0.191-2.883 0.695 0.018-0.048 2.866h9.017l-0.074-2.899h0.716l0.302 2.899h2.14l-1.217-9.748c-0.116-0.928-0.904-1.624-1.839-1.625l-9.132-0.01c-0.96-0.001-1.762 0.731-1.849 1.687l-0.885 9.696H63.629z" fill="#398378" data-fill-palette-color="accent"></path><circle cx="13.694" cy="54.013" r="3.4" fill="#398378" data-fill-palette-color="accent"></circle><path d="M8.125 69.885l0.191-2.883 0.695 0.018-0.048 2.866h9.017l-0.074-2.899h0.716l0.302 2.899h2.14l-1.217-9.748c-0.116-0.928-0.904-1.624-1.839-1.625l-9.132-0.01c-0.96-0.001-1.762 0.731-1.849 1.687l-0.885 9.696H8.125z" fill="#398378" data-fill-palette-color="accent"></path><circle cx="87.277" cy="54.013" r="3.4" fill="#398378" data-fill-palette-color="accent"></circle><path d="M81.707 69.885l0.191-2.883 0.695 0.018-0.048 2.866h9.017l-0.074-2.899h0.716l0.302 2.899h2.14l-1.217-9.748c-0.116-0.928-0.904-1.624-1.839-1.625l-9.132-0.01c-0.96-0.001-1.762 0.731-1.849 1.687l-0.885 9.696H81.707z" fill="#398378" data-fill-palette-color="accent"></path><circle cx="50.393" cy="25.588" r="3.4" fill="#398378" data-fill-palette-color="accent"></circle><path d="M56.545 31.712c-0.116-0.928-0.904-1.624-1.839-1.625l-9.132-0.01c-0.96-0.001-1.762 0.731-1.85 1.687L42.84 41.46h1.984l0.191-2.883 0.695 0.018-0.048 2.866h9.017l-0.074-2.899h0.716l0.302 2.899h2.14L56.545 31.712zM50.369 40.85l-1.354-1.957 0.845-6.876c-0.097-0.052-0.163-0.153-0.163-0.271v-0.75c0-0.171 0.139-0.309 0.31-0.309h0.75c0.171 0 0.309 0.139 0.309 0.309v0.75c0 0.129-0.079 0.239-0.19 0.286l0.899 6.862L50.369 40.85z" fill="#398378" data-fill-palette-color="accent"></path></svg></g></svg></g><g></g></svg></g></svg></g></svg></g></svg></g><defs></defs></svg><rect width="320" height="360" fill="none" stroke="none" visibility="hidden"></rect></g></svg></g></svg>