<svg xmlns="http://www.w3.org/2000/svg" version="1.1" xmlns:xlink="http://www.w3.org/1999/xlink" xmlns:svgjs="http://svgjs.dev/svgjs" width="1500" height="257" viewBox="0 0 1500 257"><g transform="matrix(1,0,0,1,-0.9090909090909918,-0.1623205825855507)"><svg viewBox="0 0 396 68" data-background-color="#ffffff" preserveAspectRatio="xMidYMid meet" height="257" width="1500" xmlns="http://www.w3.org/2000/svg" xmlns:xlink="http://www.w3.org/1999/xlink"><g id="tight-bounds" transform="matrix(1,0,0,1,0.2400000000000091,0.04294863663741921)"><svg viewBox="0 0 395.52 67.91410272672516" height="67.91410272672516" width="395.52"><g><svg viewBox="0 0 490.31972350956505 84.1920106982405" height="67.91410272672516" width="395.52"><g transform="matrix(1,0,0,1,94.79972350956507,2.0167863024294874)"><svg viewBox="0 0 395.52 80.15843809338152" height="80.15843809338152" width="395.52"><g id="textblocktransform"><svg viewBox="0 0 395.52 80.15843809338152" height="80.15843809338152" width="395.52" id="textblock"><g><svg viewBox="0 0 395.52 53.21334543066305" height="53.21334543066305" width="395.52"><g transform="matrix(1,0,0,1,0,0)"><svg width="395.52" viewBox="3.8 -35.8 347.83138671875 46.8" height="53.21334543066305" data-palette-color="#22874a"><g transform="matrix(1,0,0,1,0,0)"><g><svg width="16.434257812499997" viewBox="1.78 -36.36 74.21 36.36" height="8.052" data-palette-color="#22874a" id="scriptelement" x="335.19712890625004" y="-35.8"><path d="M12.91-30.02L1.78-30.02 1.78-36.36 31.64-36.36 31.64-30.02 20.51-30.02 20.51 0 12.91 0 12.91-30.02ZM36.57 0L36.57-36.36 46.06-36.36 56.07-11.93 56.5-11.93 66.51-36.36 75.99-36.36 75.99 0 68.53 0 68.53-23.67 68.23-23.67 58.82-0.18 53.74-0.18 44.33-23.76 44.03-23.76 44.03 0 36.57 0Z" opacity="1" transform="matrix(1,0,0,1,0,0)" fill="#22874a" class="undefined-123" data-fill-palette-color="primary" id="yy-123"></path></svg></g></g><g class="wordmark-text-0" data-fill-palette-color="primary" id="text-0"><path d="M7.3 0L3.8 0 3.8-35 15.3-35Q19.35-35 21.85-33.52 24.35-32.05 25.5-29.65 26.65-27.25 26.65-24.45L26.65-24.45Q26.65-21.7 25.5-19.28 24.35-16.85 21.85-15.38 19.35-13.9 15.3-13.9L15.3-13.9 7.3-13.9 7.3 0ZM7.3-31.8L7.3-17.1 15.3-17.1Q19.15-17.1 21.1-19.18 23.05-21.25 23.05-24.45L23.05-24.45Q23.05-27.7 21.1-29.75 19.15-31.8 15.3-31.8L15.3-31.8 7.3-31.8ZM52.35 0L34.4 0 34.4-3 41-3 41-20.8Q41-21.2 40.7-21.5 40.4-21.8 40-21.8L40-21.8 35.15-21.8 35.15-24.8 41.25-24.8Q42.7-24.8 43.5-24.05 44.3-23.3 44.3-21.85L44.3-21.85 44.3-20.45 44.5-20.45Q45.05-22.8 46.67-24.1 48.3-25.4 50.9-25.4L50.9-25.4 55.9-25.4 55.9-21.7 50.9-21.7Q47.85-21.7 46.17-19.7 44.5-17.7 44.5-14.35L44.5-14.35 44.5-3 52.35-3 52.35 0ZM75 0.6L75 0.6Q71.55 0.6 68.9-1 66.25-2.6 64.75-5.53 63.25-8.45 63.25-12.4L63.25-12.4Q63.25-16.4 64.75-19.3 66.25-22.2 68.9-23.8 71.55-25.4 75-25.4L75-25.4Q78.45-25.4 81.09-23.8 83.75-22.2 85.25-19.3 86.75-16.4 86.75-12.4L86.75-12.4Q86.75-8.45 85.25-5.53 83.75-2.6 81.09-1 78.45 0.6 75 0.6ZM75-2.7L75-2.7Q77.3-2.7 79.12-3.75 80.95-4.8 82.05-6.95 83.15-9.1 83.15-12.4L83.15-12.4Q83.15-15.75 82.05-17.88 80.95-20 79.12-21.05 77.3-22.1 75-22.1L75-22.1Q72.75-22.1 70.9-21.05 69.05-20 67.95-17.88 66.84-15.75 66.84-12.4L66.84-12.4Q66.84-9.1 67.95-6.95 69.05-4.8 70.9-3.75 72.75-2.7 75-2.7ZM97.64 11L94.14 11 94.14-24.8 96.84-24.8 97.34-20.5 97.64-20.5Q98.59-22.6 100.74-24 102.89-25.4 105.79-25.4L105.79-25.4Q108.89-25.4 111.29-23.88 113.69-22.35 115.09-19.43 116.49-16.5 116.49-12.35L116.49-12.35Q116.49-8.2 115.09-5.3 113.69-2.4 111.24-0.9 108.79 0.6 105.54 0.6L105.54 0.6Q102.59 0.6 100.54-0.73 98.49-2.05 97.64-3.8L97.64-3.8 97.64 11ZM105.29-2.7L105.29-2.7Q108.64-2.7 110.79-5.1 112.94-7.5 112.94-12.4L112.94-12.4Q112.94-17.3 110.79-19.7 108.64-22.1 105.29-22.1L105.29-22.1Q101.94-22.1 99.79-19.7 97.64-17.3 97.64-12.4L97.64-12.4Q97.64-7.5 99.79-5.1 101.94-2.7 105.29-2.7ZM137.09 0L132.89 0 121.49-35 125.29-35 134.99-4.5 144.69-35 148.49-35 137.09 0ZM164.79-29.6L164.79-29.6Q163.54-29.6 162.61-30.53 161.69-31.45 161.69-32.7L161.69-32.7Q161.69-34 162.61-34.9 163.54-35.8 164.79-35.8L164.79-35.8Q166.09-35.8 166.99-34.9 167.89-34 167.89-32.7L167.89-32.7Q167.89-31.45 166.99-30.53 166.09-29.6 164.79-29.6ZM174.74 0L155.24 0 155.24-3 163.24-3 163.24-20.8Q163.24-21.8 162.24-21.8L162.24-21.8 156.24-21.8 156.24-24.8 163.24-24.8Q166.74-24.8 166.74-21.3L166.74-21.3 166.74-3 174.74-3 174.74 0ZM195.24 0.6L195.24 0.6Q191.79 0.6 189.14-1.03 186.49-2.65 184.96-5.58 183.44-8.5 183.44-12.45L183.44-12.45Q183.44-16.4 184.94-19.3 186.44-22.2 189.11-23.8 191.79-25.4 195.34-25.4L195.34-25.4Q198.94-25.4 201.44-23.78 203.94-22.15 205.24-19.55 206.54-16.95 206.54-13.95L206.54-13.95Q206.54-13.45 206.54-12.9 206.54-12.35 206.49-11.65L206.49-11.65 186.84-11.65Q186.99-8.6 188.21-6.63 189.44-4.65 191.31-3.68 193.19-2.7 195.24-2.7L195.24-2.7Q198.29-2.7 199.96-3.98 201.64-5.25 202.44-7.45L202.44-7.45 205.84-7.45Q205.04-4.1 202.41-1.75 199.79 0.6 195.24 0.6ZM195.19-22.2L195.19-22.2Q192.04-22.2 189.66-20.25 187.29-18.3 186.89-14.85L186.89-14.85 203.14-14.85Q202.94-18.35 200.76-20.28 198.59-22.2 195.19-22.2ZM219.98 0L216.43 0 210.83-24.8 214.38-24.8 218.28-5.55 222.98-24.8 226.98-24.8 231.68-5.55 235.58-24.8 239.13-24.8 233.53 0 229.98 0 224.98-20.1 219.98 0ZM255.53 0.6L255.53 0.6Q252.18 0.6 249.46-0.68 246.73-1.95 245.11-4.38 243.48-6.8 243.33-10.25L243.33-10.25 246.93-10.25Q246.98-8.15 248.03-6.43 249.08-4.7 250.98-3.65 252.88-2.6 255.53-2.6L255.53-2.6Q259.48-2.6 261.56-4.65 263.63-6.7 263.63-10.2L263.63-10.2Q263.63-12.6 262.43-14.18 261.23-15.75 259.21-16.53 257.18-17.3 254.68-17.3L254.68-17.3 251.68-17.3 251.68-20.5 254.33-20.5Q257.98-20.5 260.08-22.13 262.18-23.75 262.18-26.65L262.18-26.65Q262.18-29.15 260.48-30.78 258.78-32.4 255.53-32.4L255.53-32.4Q252.48-32.4 250.56-30.68 248.63-28.95 248.38-26.15L248.38-26.15 244.78-26.15Q244.93-28.9 246.31-31.03 247.68-33.15 250.03-34.38 252.38-35.6 255.53-35.6L255.53-35.6Q258.83-35.6 261.13-34.4 263.43-33.2 264.61-31.2 265.78-29.2 265.78-26.85L265.78-26.85Q265.78-24.25 264.18-22.23 262.58-20.2 260.28-19.35L260.28-19.35 260.28-19.05Q263.33-18.15 265.28-16.03 267.23-13.9 267.23-10.25L267.23-10.25Q267.23-7.2 265.81-4.75 264.38-2.3 261.78-0.85 259.18 0.6 255.53 0.6ZM285.68 0.6L285.68 0.6Q281.33 0.6 278.45-1.53 275.58-3.65 274.18-7.4 272.78-11.15 272.78-16.05L272.78-16.05Q272.78-21.8 274.35-26.2 275.93-30.6 278.93-33.1 281.93-35.6 286.18-35.6L286.18-35.6Q289.43-35.6 291.78-34.33 294.13-33.05 295.48-30.93 296.83-28.8 297.08-26.15L297.08-26.15 293.73-26.15Q293.23-29 291.23-30.7 289.23-32.4 286.18-32.4L286.18-32.4Q283.53-32.4 281.3-30.73 279.08-29.05 277.68-25.55 276.28-22.05 276.08-16.6L276.08-16.6 276.28-16.6Q277.53-18.95 280-20.65 282.48-22.35 286.08-22.35L286.08-22.35Q289.23-22.35 291.75-20.85 294.28-19.35 295.75-16.82 297.23-14.3 297.23-11.1L297.23-11.1Q297.23-7.95 295.78-5.28 294.33-2.6 291.75-1 289.18 0.6 285.68 0.6ZM285.43-2.6L285.43-2.6Q287.88-2.6 289.73-3.7 291.58-4.8 292.6-6.68 293.63-8.55 293.63-10.9L293.63-10.9Q293.63-13.25 292.6-15.13 291.58-17 289.73-18.07 287.88-19.15 285.43-19.15L285.43-19.15Q282.98-19.15 281.13-18.07 279.28-17 278.23-15.13 277.18-13.25 277.18-10.85L277.18-10.85Q277.18-8.5 278.23-6.63 279.28-4.75 281.13-3.68 282.98-2.6 285.43-2.6ZM314.98 0.6L314.98 0.6Q311.43 0.6 308.9-0.75 306.38-2.1 304.9-4.4 303.43-6.7 303.03-9.55L303.03-9.55 306.63-9.55Q307.13-6.5 309.38-4.55 311.63-2.6 315.03-2.6L315.03-2.6Q317.73-2.6 319.63-3.8 321.53-5 322.55-7.08 323.58-9.15 323.58-11.75L323.58-11.75Q323.58-15.9 321.28-18.28 318.98-20.65 315.23-20.65L315.23-20.65Q312.23-20.65 310.1-19.3 307.98-17.95 306.68-15.85L306.68-15.85 303.38-15.85 306.38-35 324.83-35 324.83-31.8 309.13-31.8 307.18-20.5 307.38-20.5Q308.58-21.8 310.7-22.83 312.83-23.85 315.48-23.85L315.48-23.85Q318.83-23.85 321.43-22.43 324.03-21 325.5-18.3 326.98-15.6 326.98-11.8L326.98-11.8Q326.98-8.5 325.6-5.68 324.23-2.85 321.55-1.13 318.88 0.6 314.98 0.6Z" fill="#22874a" data-fill-palette-color="primary"></path></g></svg></g></svg></g><g transform="matrix(1,0,0,1,0,65.77573916655226)"><svg viewBox="0 0 232.20979199999996 14.382698926829267" height="14.382698926829267" width="232.20979199999996"><g transform="matrix(1,0,0,1,0,0)"><svg width="232.20979199999996" viewBox="0.65 -37 778.9200000000001 48.25" height="14.382698926829267" data-palette-color="#ff0000"><path d="M0.65-35.5L5.6-35.5 16.35-17 27.2-35.5 32.1-35.5 18.6-12.95 18.6 0 14.1 0 14.1-13.05 0.65-35.5ZM43.15 0.5L43.15 0.5Q40.2 0.5 37.8-0.58 35.4-1.65 33.65-3.53 31.9-5.4 30.95-7.85 30-10.3 30-13L30-13Q30-15.75 30.95-18.2 31.9-20.65 33.65-22.53 35.4-24.4 37.82-25.48 40.25-26.55 43.2-26.55L43.2-26.55Q46.1-26.55 48.5-25.48 50.9-24.4 52.67-22.53 54.45-20.65 55.4-18.2 56.35-15.75 56.35-13L56.35-13Q56.35-10.3 55.4-7.85 54.45-5.4 52.7-3.53 50.95-1.65 48.52-0.58 46.1 0.5 43.15 0.5ZM34.5-12.95L34.5-12.95Q34.5-10.25 35.67-8.05 36.85-5.85 38.8-4.58 40.75-3.3 43.15-3.3L43.15-3.3Q45.55-3.3 47.52-4.6 49.5-5.9 50.67-8.13 51.85-10.35 51.85-13.05L51.85-13.05Q51.85-15.75 50.67-17.95 49.5-20.15 47.52-21.45 45.55-22.75 43.15-22.75L43.15-22.75Q40.75-22.75 38.8-21.43 36.85-20.1 35.67-17.9 34.5-15.7 34.5-12.95ZM61.45-10.45L61.45-10.45 61.45-26.1 65.84-26.1 65.84-11.3Q65.84-7.3 67.25-5.3 68.65-3.3 71.4-3.3L71.4-3.3Q73.2-3.3 74.87-4.08 76.55-4.85 77.9-6.3 79.25-7.75 80-9.75L80-9.75 80-26.1 84.4-26.1 84.4-5Q84.4-4.2 84.72-3.83 85.05-3.45 85.8-3.4L85.8-3.4 85.8 0Q85.05 0.1 84.62 0.13 84.2 0.15 83.8 0.15L83.8 0.15Q82.55 0.15 81.65-0.63 80.75-1.4 80.7-2.55L80.7-2.55 80.59-5.6Q78.9-2.7 76.02-1.1 73.15 0.5 69.75 0.5L69.75 0.5Q65.65 0.5 63.55-2.27 61.45-5.05 61.45-10.45ZM105.54-26.25L105.54-22.25Q102.24-22.2 99.72-20.58 97.19-18.95 96.14-16.1L96.14-16.1 96.14 0 91.74 0 91.74-26.1 95.84-26.1 95.84-20.05Q97.19-22.75 99.42-24.43 101.64-26.1 104.09-26.3L104.09-26.3Q104.59-26.3 104.94-26.3 105.29-26.3 105.54-26.25L105.54-26.25ZM126.59 0L122.09 0 122.09-35.5 136.89-35.5Q139.24-35.5 141.19-34.52 143.14-33.55 144.59-31.93 146.04-30.3 146.84-28.28 147.64-26.25 147.64-24.15L147.64-24.15Q147.64-21.25 146.34-18.63 145.04-16 142.69-14.38 140.34-12.75 137.19-12.75L137.19-12.75 126.59-12.75 126.59 0ZM126.59-31.5L126.59-16.75 136.94-16.75Q138.79-16.75 140.16-17.75 141.54-18.75 142.31-20.45 143.09-22.15 143.09-24.15L143.09-24.15Q143.09-26.25 142.19-27.93 141.29-29.6 139.84-30.55 138.39-31.5 136.64-31.5L136.64-31.5 126.59-31.5ZM163.59 0.5L163.59 0.5Q160.64 0.5 158.21-0.58 155.79-1.65 154.01-3.53 152.24-5.4 151.26-7.85 150.29-10.3 150.29-13.05L150.29-13.05Q150.29-16.75 151.99-19.8 153.69-22.85 156.71-24.7 159.74-26.55 163.64-26.55L163.64-26.55Q167.59-26.55 170.51-24.68 173.44-22.8 175.06-19.78 176.69-16.75 176.69-13.25L176.69-13.25Q176.69-12.75 176.66-12.28 176.64-11.8 176.59-11.55L176.59-11.55 154.94-11.55Q155.14-9 156.36-7.03 157.59-5.05 159.54-3.93 161.49-2.8 163.74-2.8L163.74-2.8Q166.14-2.8 168.26-4 170.39-5.2 171.19-7.15L171.19-7.15 174.99-6.1Q174.14-4.2 172.46-2.7 170.79-1.2 168.51-0.35 166.24 0.5 163.59 0.5ZM154.79-14.6L154.79-14.6 172.59-14.6Q172.39-17.15 171.14-19.1 169.89-21.05 167.94-22.15 165.99-23.25 163.64-23.25L163.64-23.25Q161.34-23.25 159.39-22.15 157.44-21.05 156.21-19.1 154.99-17.15 154.79-14.6ZM195.38-26.25L195.38-22.25Q192.08-22.2 189.56-20.58 187.03-18.95 185.98-16.1L185.98-16.1 185.98 0 181.58 0 181.58-26.1 185.68-26.1 185.68-20.05Q187.03-22.75 189.26-24.43 191.48-26.1 193.93-26.3L193.93-26.3Q194.43-26.3 194.78-26.3 195.13-26.3 195.38-26.25L195.38-26.25ZM213.78 0.5L213.78 0.5Q210.58 0.5 208.08-1.1 205.58-2.7 204.13-5.15L204.13-5.15 204.13 10.65 199.73 10.65 199.73-26.1 203.63-26.1 203.63-21.2Q205.18-23.6 207.68-25.08 210.18-26.55 213.13-26.55L213.13-26.55Q215.83-26.55 218.08-25.45 220.33-24.35 221.98-22.45 223.63-20.55 224.56-18.13 225.48-15.7 225.48-13.05L225.48-13.05Q225.48-9.35 224.01-6.25 222.53-3.15 219.88-1.33 217.23 0.5 213.78 0.5ZM212.43-3.3L212.43-3.3Q214.38-3.3 215.96-4.13 217.53-4.95 218.66-6.33 219.78-7.7 220.38-9.45 220.98-11.2 220.98-13.05L220.98-13.05Q220.98-15 220.31-16.75 219.63-18.5 218.41-19.85 217.18-21.2 215.56-21.98 213.93-22.75 212.03-22.75L212.03-22.75Q210.83-22.75 209.56-22.3 208.28-21.85 207.13-21.03 205.98-20.2 205.18-19.15 204.38-18.1 204.13-16.9L204.13-16.9 204.13-9.45Q204.88-7.75 206.13-6.35 207.38-4.95 209.03-4.13 210.68-3.3 212.43-3.3ZM242.43 0.5L242.43 0.5Q239.48 0.5 237.05-0.58 234.63-1.65 232.85-3.53 231.08-5.4 230.1-7.85 229.13-10.3 229.13-13.05L229.13-13.05Q229.13-16.75 230.83-19.8 232.53-22.85 235.55-24.7 238.58-26.55 242.48-26.55L242.48-26.55Q246.43-26.55 249.35-24.68 252.28-22.8 253.9-19.78 255.53-16.75 255.53-13.25L255.53-13.25Q255.53-12.75 255.5-12.28 255.48-11.8 255.43-11.55L255.43-11.55 233.78-11.55Q233.98-9 235.2-7.03 236.43-5.05 238.38-3.93 240.33-2.8 242.58-2.8L242.58-2.8Q244.98-2.8 247.1-4 249.23-5.2 250.03-7.15L250.03-7.15 253.83-6.1Q252.98-4.2 251.3-2.7 249.63-1.2 247.35-0.35 245.08 0.5 242.43 0.5ZM233.63-14.6L233.63-14.6 251.43-14.6Q251.23-17.15 249.98-19.1 248.73-21.05 246.78-22.15 244.83-23.25 242.48-23.25L242.48-23.25Q240.18-23.25 238.23-22.15 236.28-21.05 235.05-19.1 233.83-17.15 233.63-14.6ZM272.63-4.8L273.68-1.3Q273.13-1.05 272.18-0.65 271.23-0.25 269.98 0.05 268.73 0.35 267.33 0.35L267.33 0.35Q265.73 0.35 264.38-0.23 263.03-0.8 262.23-2.02 261.43-3.25 261.43-5.1L261.43-5.1 261.43-22.65 257.88-22.65 257.88-26.1 261.43-26.1 261.43-34.8 265.83-34.8 265.83-26.1 271.68-26.1 271.68-22.65 265.83-22.65 265.83-6.45Q265.93-5.05 266.78-4.38 267.63-3.7 268.78-3.7L268.78-3.7Q270.08-3.7 271.18-4.15 272.28-4.6 272.63-4.8L272.63-4.8ZM277.52-10.45L277.52-10.45 277.52-26.1 281.92-26.1 281.92-11.3Q281.92-7.3 283.32-5.3 284.72-3.3 287.47-3.3L287.47-3.3Q289.27-3.3 290.95-4.08 292.62-4.85 293.97-6.3 295.32-7.75 296.07-9.75L296.07-9.75 296.07-26.1 300.47-26.1 300.47-5Q300.47-4.2 300.8-3.83 301.12-3.45 301.87-3.4L301.87-3.4 301.87 0Q301.12 0.1 300.7 0.13 300.27 0.15 299.87 0.15L299.87 0.15Q298.62 0.15 297.72-0.63 296.82-1.4 296.77-2.55L296.77-2.55 296.67-5.6Q294.97-2.7 292.1-1.1 289.22 0.5 285.82 0.5L285.82 0.5Q281.72 0.5 279.62-2.27 277.52-5.05 277.52-10.45ZM305.77-7.55L305.77-7.55Q305.77-10.05 307.2-11.88 308.62-13.7 311.12-14.7 313.62-15.7 316.92-15.7L316.92-15.7Q318.67-15.7 320.62-15.43 322.57-15.15 324.07-14.6L324.07-14.6 324.07-16.5Q324.07-19.5 322.27-21.23 320.47-22.95 317.17-22.95L317.17-22.95Q315.02-22.95 313.05-22.18 311.07-21.4 308.87-19.95L308.87-19.95 307.27-23.05Q309.82-24.8 312.37-25.68 314.92-26.55 317.67-26.55L317.67-26.55Q322.67-26.55 325.57-23.78 328.47-21 328.47-16.05L328.47-16.05 328.47-5Q328.47-4.2 328.8-3.83 329.12-3.45 329.87-3.4L329.87-3.4 329.87 0Q329.22 0.1 328.75 0.15 328.27 0.2 327.97 0.2L327.97 0.2Q326.42 0.2 325.65-0.65 324.87-1.5 324.77-2.45L324.77-2.45 324.67-4.1Q322.97-1.9 320.22-0.7 317.47 0.5 314.77 0.5L314.77 0.5Q312.17 0.5 310.12-0.58 308.07-1.65 306.92-3.48 305.77-5.3 305.77-7.55ZM322.77-5.7L322.77-5.7Q323.37-6.4 323.72-7.13 324.07-7.85 324.07-8.35L324.07-8.35 324.07-11.6Q322.52-12.2 320.82-12.53 319.12-12.85 317.47-12.85L317.47-12.85Q314.12-12.85 312.05-11.53 309.97-10.2 309.97-7.9L309.97-7.9Q309.97-6.65 310.65-5.48 311.32-4.3 312.65-3.55 313.97-2.8 315.92-2.8L315.92-2.8Q317.97-2.8 319.82-3.63 321.67-4.45 322.77-5.7ZM335.62-5.15L335.62-36.5 340.02-36.5 340.02-6.75Q340.02-4.6 340.62-4.1 341.22-3.6 342.07-3.6L342.07-3.6Q343.12-3.6 344.07-3.83 345.02-4.05 345.67-4.3L345.67-4.3 346.37-0.7Q345.27-0.25 343.77 0.05 342.27 0.35 341.12 0.35L341.12 0.35Q338.57 0.35 337.09-1.1 335.62-2.55 335.62-5.15L335.62-5.15ZM366.16 0L361.66 0 361.66-35.5 376.46-35.5Q378.81-35.5 380.76-34.52 382.71-33.55 384.16-31.93 385.61-30.3 386.41-28.28 387.21-26.25 387.21-24.15L387.21-24.15Q387.21-21.25 385.91-18.63 384.61-16 382.26-14.38 379.91-12.75 376.76-12.75L376.76-12.75 366.16-12.75 366.16 0ZM366.16-31.5L366.16-16.75 376.51-16.75Q378.36-16.75 379.74-17.75 381.11-18.75 381.89-20.45 382.66-22.15 382.66-24.15L382.66-24.15Q382.66-26.25 381.76-27.93 380.86-29.6 379.41-30.55 377.96-31.5 376.21-31.5L376.21-31.5 366.16-31.5ZM405.91-26.25L405.91-22.25Q402.61-22.2 400.09-20.58 397.56-18.95 396.51-16.1L396.51-16.1 396.51 0 392.11 0 392.11-26.1 396.21-26.1 396.21-20.05Q397.56-22.75 399.79-24.43 402.01-26.1 404.46-26.3L404.46-26.3Q404.96-26.3 405.31-26.3 405.66-26.3 405.91-26.25L405.91-26.25ZM421.06 0.5L421.06 0.5Q418.11 0.5 415.71-0.58 413.31-1.65 411.56-3.53 409.81-5.4 408.86-7.85 407.91-10.3 407.91-13L407.91-13Q407.91-15.75 408.86-18.2 409.81-20.65 411.56-22.53 413.31-24.4 415.73-25.48 418.16-26.55 421.11-26.55L421.11-26.55Q424.01-26.55 426.41-25.48 428.81-24.4 430.58-22.53 432.36-20.65 433.31-18.2 434.26-15.75 434.26-13L434.26-13Q434.26-10.3 433.31-7.85 432.36-5.4 430.61-3.53 428.86-1.65 426.43-0.58 424.01 0.5 421.06 0.5ZM412.41-12.95L412.41-12.95Q412.41-10.25 413.58-8.05 414.76-5.85 416.71-4.58 418.66-3.3 421.06-3.3L421.06-3.3Q423.46-3.3 425.43-4.6 427.41-5.9 428.58-8.13 429.76-10.35 429.76-13.05L429.76-13.05Q429.76-15.75 428.58-17.95 427.41-20.15 425.43-21.45 423.46-22.75 421.06-22.75L421.06-22.75Q418.66-22.75 416.71-21.43 414.76-20.1 413.58-17.9 412.41-15.7 412.41-12.95ZM453.66 0.5L453.66 0.5Q450.45 0.5 447.95-1.1 445.45-2.7 444-5.15L444-5.15 444 10.65 439.61 10.65 439.61-26.1 443.5-26.1 443.5-21.2Q445.06-23.6 447.56-25.08 450.06-26.55 453-26.55L453-26.55Q455.7-26.55 457.95-25.45 460.2-24.35 461.86-22.45 463.5-20.55 464.43-18.13 465.36-15.7 465.36-13.05L465.36-13.05Q465.36-9.35 463.88-6.25 462.41-3.15 459.75-1.33 457.11 0.5 453.66 0.5ZM452.31-3.3L452.31-3.3Q454.25-3.3 455.83-4.13 457.41-4.95 458.53-6.33 459.66-7.7 460.25-9.45 460.86-11.2 460.86-13.05L460.86-13.05Q460.86-15 460.18-16.75 459.5-18.5 458.28-19.85 457.06-21.2 455.43-21.98 453.81-22.75 451.91-22.75L451.91-22.75Q450.7-22.75 449.43-22.3 448.16-21.85 447-21.03 445.86-20.2 445.06-19.15 444.25-18.1 444-16.9L444-16.9 444-9.45Q444.75-7.75 446-6.35 447.25-4.95 448.91-4.13 450.56-3.3 452.31-3.3ZM482.3 0.5L482.3 0.5Q479.35 0.5 476.93-0.58 474.5-1.65 472.73-3.53 470.95-5.4 469.98-7.85 469-10.3 469-13.05L469-13.05Q469-16.75 470.7-19.8 472.4-22.85 475.43-24.7 478.45-26.55 482.35-26.55L482.35-26.55Q486.3-26.55 489.23-24.68 492.15-22.8 493.78-19.78 495.4-16.75 495.4-13.25L495.4-13.25Q495.4-12.75 495.38-12.28 495.35-11.8 495.3-11.55L495.3-11.55 473.65-11.55Q473.85-9 475.08-7.03 476.3-5.05 478.25-3.93 480.2-2.8 482.45-2.8L482.45-2.8Q484.85-2.8 486.98-4 489.1-5.2 489.9-7.15L489.9-7.15 493.7-6.1Q492.85-4.2 491.18-2.7 489.5-1.2 487.23-0.35 484.95 0.5 482.3 0.5ZM473.5-14.6L473.5-14.6 491.3-14.6Q491.1-17.15 489.85-19.1 488.6-21.05 486.65-22.15 484.7-23.25 482.35-23.25L482.35-23.25Q480.05-23.25 478.1-22.15 476.15-21.05 474.93-19.1 473.7-17.15 473.5-14.6ZM514.1-26.25L514.1-22.25Q510.8-22.2 508.27-20.58 505.75-18.95 504.7-16.1L504.7-16.1 504.7 0 500.3 0 500.3-26.1 504.4-26.1 504.4-20.05Q505.75-22.75 507.98-24.43 510.2-26.1 512.65-26.3L512.65-26.3Q513.15-26.3 513.5-26.3 513.85-26.3 514.1-26.25L514.1-26.25ZM530.9-4.8L531.95-1.3Q531.4-1.05 530.45-0.65 529.5-0.25 528.25 0.05 527 0.35 525.6 0.35L525.6 0.35Q524 0.35 522.65-0.23 521.3-0.8 520.5-2.02 519.7-3.25 519.7-5.1L519.7-5.1 519.7-22.65 516.15-22.65 516.15-26.1 519.7-26.1 519.7-34.8 524.1-34.8 524.1-26.1 529.95-26.1 529.95-22.65 524.1-22.65 524.1-6.45Q524.2-5.05 525.05-4.38 525.9-3.7 527.05-3.7L527.05-3.7Q528.35-3.7 529.45-4.15 530.55-4.6 530.9-4.8L530.9-4.8ZM537.24 11L537.24 7.1Q537.89 7.15 538.54 7.23 539.19 7.3 539.54 7.3L539.54 7.3Q540.34 7.3 540.94 6.75 541.54 6.2 542.27 4.63 542.99 3.05 544.14 0L544.14 0 533.09-26.1 537.74-26.1 546.54-4.45 554.49-26.1 558.84-26.1 546.14 6.85Q545.69 8 544.82 9.03 543.94 10.05 542.59 10.65 541.24 11.25 539.34 11.25L539.34 11.25Q538.89 11.25 538.42 11.2 537.94 11.15 537.24 11L537.24 11ZM598.24-31.7L596.14-28.05Q595.54-28.75 594.54-29.4 593.54-30.05 592.29-30.58 591.04-31.1 589.56-31.43 588.09-31.75 586.49-31.75L586.49-31.75Q582.39-31.75 580.44-30.2 578.49-28.65 578.49-25.95L578.49-25.95Q578.49-24.05 579.49-22.95 580.49-21.85 582.56-21.15 584.64-20.45 587.84-19.7L587.84-19.7Q591.54-18.9 594.24-17.75 596.94-16.6 598.39-14.68 599.84-12.75 599.84-9.55L599.84-9.55Q599.84-7 598.86-5.13 597.89-3.25 596.14-2.02 594.39-0.8 592.04-0.23 589.69 0.35 586.94 0.35L586.94 0.35Q584.24 0.35 581.66-0.23 579.09-0.8 576.79-1.9 574.49-3 572.49-4.65L572.49-4.65 574.64-8.45Q575.44-7.6 576.71-6.78 577.99-5.95 579.61-5.25 581.24-4.55 583.14-4.13 585.04-3.7 587.04-3.7L587.04-3.7Q590.84-3.7 592.94-5.08 595.04-6.45 595.04-9.1L595.04-9.1Q595.04-11.1 593.86-12.3 592.69-13.5 590.39-14.3 588.09-15.1 584.79-15.9L584.79-15.9Q581.19-16.8 578.74-17.88 576.29-18.95 575.06-20.7 573.84-22.45 573.84-25.25L573.84-25.25Q573.84-28.65 575.49-31 577.14-33.35 580.04-34.55 582.94-35.75 586.59-35.75L586.59-35.75Q588.99-35.75 591.06-35.25 593.14-34.75 594.94-33.85 596.74-32.95 598.24-31.7L598.24-31.7ZM616.44 0.5L616.44 0.5Q613.49 0.5 611.09-0.58 608.69-1.65 606.94-3.53 605.19-5.4 604.24-7.85 603.29-10.3 603.29-13L603.29-13Q603.29-15.75 604.24-18.2 605.19-20.65 606.94-22.53 608.69-24.4 611.11-25.48 613.54-26.55 616.49-26.55L616.49-26.55Q619.39-26.55 621.79-25.48 624.19-24.4 625.96-22.53 627.74-20.65 628.69-18.2 629.64-15.75 629.64-13L629.64-13Q629.64-10.3 628.69-7.85 627.74-5.4 625.99-3.53 624.24-1.65 621.81-0.58 619.39 0.5 616.44 0.5ZM607.79-12.95L607.79-12.95Q607.79-10.25 608.96-8.05 610.14-5.85 612.09-4.58 614.04-3.3 616.44-3.3L616.44-3.3Q618.84-3.3 620.81-4.6 622.79-5.9 623.96-8.13 625.14-10.35 625.14-13.05L625.14-13.05Q625.14-15.75 623.96-17.95 622.79-20.15 620.81-21.45 618.84-22.75 616.44-22.75L616.44-22.75Q614.04-22.75 612.09-21.43 610.14-20.1 608.96-17.9 607.79-15.7 607.79-12.95ZM640.33 0L635.93 0 635.93-22.65 632.38-22.65 632.38-26.1 635.93-26.1 635.93-26.65Q635.93-29.85 636.91-32.18 637.88-34.5 639.68-35.75 641.48-37 643.93-37L643.93-37Q645.48-37 646.98-36.58 648.48-36.15 649.68-35.4L649.68-35.4 648.58-32.15Q647.88-32.65 646.86-32.95 645.83-33.25 644.83-33.25L644.83-33.25Q642.68-33.25 641.51-31.58 640.33-29.9 640.33-26.8L640.33-26.8 640.33-26.1 647.28-26.1 647.28-22.65 640.33-22.65 640.33 0ZM664.13-4.8L665.18-1.3Q664.63-1.05 663.68-0.65 662.73-0.25 661.48 0.05 660.23 0.35 658.83 0.35L658.83 0.35Q657.23 0.35 655.88-0.23 654.53-0.8 653.73-2.02 652.93-3.25 652.93-5.1L652.93-5.1 652.93-22.65 649.38-22.65 649.38-26.1 652.93-26.1 652.93-34.8 657.33-34.8 657.33-26.1 663.18-26.1 663.18-22.65 657.33-22.65 657.33-6.45Q657.43-5.05 658.28-4.38 659.13-3.7 660.28-3.7L660.28-3.7Q661.58-3.7 662.68-4.15 663.78-4.6 664.13-4.8L664.13-4.8ZM693.03-4.35L701.98-26.1 706.23-26.1 695.13 0 691.28 0 686.23-12.3 681.23 0 677.38 0 666.28-26.1 670.48-26.1 679.48-4.35 683.68-15.05 679.28-26.05 683.13-26.05 686.23-17.75 689.33-26.05 693.18-26.05 688.83-15.05 693.03-4.35ZM707.63-7.55L707.63-7.55Q707.63-10.05 709.05-11.88 710.48-13.7 712.98-14.7 715.48-15.7 718.78-15.7L718.78-15.7Q720.53-15.7 722.48-15.43 724.43-15.15 725.93-14.6L725.93-14.6 725.93-16.5Q725.93-19.5 724.13-21.23 722.33-22.95 719.03-22.95L719.03-22.95Q716.88-22.95 714.9-22.18 712.93-21.4 710.73-19.95L710.73-19.95 709.13-23.05Q711.68-24.8 714.23-25.68 716.78-26.55 719.53-26.55L719.53-26.55Q724.53-26.55 727.43-23.78 730.33-21 730.33-16.05L730.33-16.05 730.33-5Q730.33-4.2 730.65-3.83 730.98-3.45 731.73-3.4L731.73-3.4 731.73 0Q731.08 0.1 730.6 0.15 730.13 0.2 729.83 0.2L729.83 0.2Q728.28 0.2 727.5-0.65 726.73-1.5 726.63-2.45L726.63-2.45 726.53-4.1Q724.83-1.9 722.08-0.7 719.33 0.5 716.63 0.5L716.63 0.5Q714.03 0.5 711.98-0.58 709.93-1.65 708.78-3.48 707.63-5.3 707.63-7.55ZM724.63-5.7L724.63-5.7Q725.23-6.4 725.58-7.13 725.93-7.85 725.93-8.35L725.93-8.35 725.93-11.6Q724.38-12.2 722.68-12.53 720.98-12.85 719.33-12.85L719.33-12.85Q715.98-12.85 713.9-11.53 711.83-10.2 711.83-7.9L711.83-7.9Q711.83-6.65 712.5-5.48 713.18-4.3 714.5-3.55 715.83-2.8 717.78-2.8L717.78-2.8Q719.83-2.8 721.68-3.63 723.53-4.45 724.63-5.7ZM751.17-26.25L751.17-22.25Q747.87-22.2 745.35-20.58 742.82-18.95 741.77-16.1L741.77-16.1 741.77 0 737.37 0 737.37-26.1 741.47-26.1 741.47-20.05Q742.82-22.75 745.05-24.43 747.27-26.1 749.72-26.3L749.72-26.3Q750.22-26.3 750.57-26.3 750.92-26.3 751.17-26.25L751.17-26.25ZM766.47 0.5L766.47 0.5Q763.52 0.5 761.1-0.58 758.67-1.65 756.9-3.53 755.12-5.4 754.15-7.85 753.17-10.3 753.17-13.05L753.17-13.05Q753.17-16.75 754.87-19.8 756.57-22.85 759.6-24.7 762.62-26.55 766.52-26.55L766.52-26.55Q770.47-26.55 773.4-24.68 776.32-22.8 777.95-19.78 779.57-16.75 779.57-13.25L779.57-13.25Q779.57-12.75 779.55-12.28 779.52-11.8 779.47-11.55L779.47-11.55 757.82-11.55Q758.02-9 759.25-7.03 760.47-5.05 762.42-3.93 764.37-2.8 766.62-2.8L766.62-2.8Q769.02-2.8 771.15-4 773.27-5.2 774.07-7.15L774.07-7.15 777.87-6.1Q777.02-4.2 775.35-2.7 773.67-1.2 771.4-0.35 769.12 0.5 766.47 0.5ZM757.67-14.6L757.67-14.6 775.47-14.6Q775.27-17.15 774.02-19.1 772.77-21.05 770.82-22.15 768.87-23.25 766.52-23.25L766.52-23.25Q764.22-23.25 762.27-22.15 760.32-21.05 759.1-19.1 757.87-17.15 757.67-14.6Z" opacity="1" transform="matrix(1,0,0,1,0,0)" fill="#ff0000" class="slogan-text-1" data-fill-palette-color="secondary" id="text-1"></path></svg></g></svg></g></svg></g></svg></g><g><svg viewBox="0 0 82.23732977367585 84.1920106982405" height="84.1920106982405" width="82.23732977367585"><g><svg xmlns="http://www.w3.org/2000/svg" xmlns:xlink="http://www.w3.org/1999/xlink" version="1.1" x="0" y="0" viewBox="2.956846756230184 1.7749999999999995 94.18630648753961 96.425" style="enable-background:new 0 0 100 100;" xml:space="preserve" height="84.1920106982405" width="82.23732977367585" class="icon-icon-0" data-fill-palette-color="accent" id="icon-0"><path d="M94.8 42.4c-0.4-3.3-3.3-5.7-6.7-5.4 0 0 0 0-0.1 0-3.3 0.4-5.8 3.3-5.5 6.7l1.4 15L78.9 67h-0.7l2.6-6.1c1.2-2.9 0-6.3-2.9-7.8h-0.1c-2.8-1.4-6.3-0.4-7.9 2.3l-8.7 14.5c-0.8 1.2-1.2 2.7-1.1 4.2l1.6 21.8c0.1 1.3 1.2 2.3 2.5 2.3h16.6c1.4 0 2.5-1.1 2.5-2.5 0-0.1 0-0.2 0-0.3l-1.4-10.3 13.8-17.7c1.1-1.4 1.6-3.2 1.4-5L94.8 42.4zM91.7 64.3L77.2 82.9c-0.4 0.5-0.6 1.2-0.5 1.9l1.2 8.5H66.6l-1.4-19.5c0-0.4 0.1-0.9 0.4-1.2l8.7-14.6c0.3-0.5 0.9-0.7 1.4-0.4l0 0c0.5 0.3 0.7 0.8 0.5 1.3l-4 9.4c-0.5 1.3 0.1 2.7 1.3 3.3 0.3 0.1 0.6 0.2 0.9 0.2l5.8 0.3c0.9 0 1.8-0.4 2.2-1.2l6.3-10.3c0.3-0.4 0.4-1 0.4-1.5l-1.5-15.7c-0.1-0.6 0.4-1.2 1.1-1.3 0 0 0 0 0.1 0 0.5-0.1 1.1 0.3 1.1 0.8 0 0 0 0 0 0.1l2.2 20C92.1 63.4 92 63.9 91.7 64.3z" fill="#22874a" data-fill-palette-color="accent"></path><path d="M18.2 85.1l-1.4 10.3c-0.2 1.4 0.8 2.6 2.1 2.8 0.1 0 0.2 0 0.3 0h16.6c1.3 0 2.4-1 2.5-2.3L39.8 74c0.1-1.4-0.3-2.8-1.1-4l-8.7-14.6c-1.6-2.7-5-3.7-7.9-2.4h0c-2.8 1.4-4.1 4.8-2.9 7.8l2.6 6.2h-0.7L16 58.6l1.4-14.9c0.3-3.4-2.2-6.4-5.6-6.7-3.3-0.3-6.3 2-6.6 5.3l-2.2 20c-0.2 1.8 0.3 3.6 1.4 5L18.2 85.1zM7.9 62.9l2.2-20c0.1-0.6 0.6-1 1.2-0.9 0 0 0 0 0 0 0.6 0.1 1.1 0.6 1 1.2L10.9 59c0 0.5 0.1 1.1 0.4 1.5l6.3 10.3c0.5 0.8 1.3 1.2 2.2 1.2l5.8-0.3c1.4-0.1 2.4-1.2 2.4-2.6 0-0.3-0.1-0.6-0.2-0.9l-4-9.4c-0.2-0.5 0-1.1 0.5-1.3l0 0c0.5-0.2 1.1-0.1 1.4 0.4l8.8 14.7c0.2 0.3 0.3 0.7 0.3 1.1l-1.4 19.5H22.1l1.2-8.5c0.1-0.7-0.1-1.3-0.5-1.9L8.3 64.3C8 63.9 7.9 63.4 7.9 62.9z" fill="#22874a" data-fill-palette-color="accent"></path><path d="M71 47.9V24.5l3.6 2.9c1 0.9 2.6 0.8 3.5-0.3 0.9-1 0.8-2.6-0.3-3.5 0 0-0.1-0.1-0.1-0.1L51.6 2.3c-0.9-0.7-2.2-0.7-3.2 0L22.3 23.6c-1.1 0.8-1.3 2.4-0.5 3.5 0.8 1.1 2.4 1.3 3.5 0.5 0 0 0.1-0.1 0.1-0.1l3.6-2.9v23.4c0 1.4 1.1 2.5 2.5 2.5h37C69.9 50.4 71 49.3 71 47.9zM53 45.4h-6V34.3h6V45.4zM58 45.4V31.8c0-1.4-1.1-2.5-2.5-2.5h-11c-1.4 0-2.5 1.1-2.5 2.5v13.7h-8v-25l16-13 16 13v25H58z" fill="#22874a" data-fill-palette-color="accent"></path></svg></g></svg></g></svg></g><defs></defs></svg><rect width="395.52" height="67.91410272672516" fill="none" stroke="none" visibility="hidden"></rect></g></svg></g></svg>