<svg xmlns="http://www.w3.org/2000/svg" version="1.1" xmlns:xlink="http://www.w3.org/1999/xlink" xmlns:svgjs="http://svgjs.dev/svgjs" width="1500" height="1687" viewBox="0 0 1500 1687"><g transform="matrix(1,0,0,1,0.00011015625000254659,0)"><svg viewBox="0 0 320 360" data-background-color="#ffffff" preserveAspectRatio="xMidYMid meet" height="1687" width="1500" xmlns="http://www.w3.org/2000/svg" xmlns:xlink="http://www.w3.org/1999/xlink"><g id="tight-bounds" transform="matrix(1,0,0,1,0.000023499999997511622,0)"><svg viewBox="0 0 320 360" height="360" width="320"><g><svg></svg></g><g><svg viewBox="0 0 320 360" height="360" width="320"><g><path transform="translate(-74.99272,-51.79039) scale(4.65793,4.65793)" d="M20.6 59.9l0.8 1-0.4-1.3c-0.1-0.6-0.8 0.1-0.4 0.3M21.5 59.3c0.3 0.5 0.6 1 0.6 1.5 0 0.7 0.6 1 1.1 1.2-0.7-0.8-1.1-3-1.7-2.7M59.9 16.9c1.7 0 3.3-0.2 5.1 0.2 4.4 1.1 8.1 3.3 10.6 6.4l7 11.2c0.3 2.8 0.9 5.9 0.8 9.3 0.7 0 0.6-1 1.4-1.2-0.8 2-1.2 4.5-1.4 7.4-0.5-1.6 0-4 0.1-5.3-0.7 1.1-1.1 0.3-1.1-0.2 0.1-0.8-0.3-0.7-0.6-1-1.1-1-1.8-2.1-2.6-3.8 0.5-1.3 0.6-3.2-1-4.2-0.5-0.3-1.1-0.8-1.4-1.6-0.4-1.1-1.1-2.4-0.9-4.1 0.1-0.5-1.5 1.1-2.4 0.4-3.9-2.7-7.8-5.8-12.5-8.4-2.5 0-4.3-0.9-5.2-2-0.8-1-0.2-2.3 1-2.4 0.7 0 1.5-0.2 2.1 0.2 0.1-0.4 0.5-0.9 1-0.9M50 14.6l0.2 0.1c1 0.2 1.5 1.6 2.6 1.1 0 0.7 0.1 1.4-0.1 1.9-0.3 0.8-1.2 0.8-1.9 0.8-6.7-0.4-10.6 2.4-14.7 4.8-1.1 0.7-2.3 1.2-3.2 2.1-4.3 4-9 7.7-10.1 15.1l-0.9 8.2c-0.1 0.9-1.1 1.8-0.9 2.9l0.7 4.9c-0.7-0.7-1.1 0.2-0.9 0.6 0.1 0.3 0.5 1.3 1.1 0.4 0.8 1.5 1.6 4.4 2.7 5.7 3.4 4 7.8 7.6 11.4 11.2 0.9-0.2 1.6-0.2 1.8-0.8 0.3 0.6-0.3 1.2-0.8 1.3 1.6 1 3.4 1.9 5.8 2.1 3.1 0.2 6 0.7 8.7 1.4 1.4-0.4 2.8-0.6 4.3-0.7 0.5 0 0.8-0.8 1.4-1l0.1-1c0.6 0.9 0.5-0.3 0.1-0.9 0.7 0.6 0.9 1.1 1.2 1.5 0-0.3 0.8-1.4 0.8-0.1l0.2-1.3c0.3-0.2 0.4 1.1 0.7 0.2 0.3-0.9 0.9-0.2 1.5-0.5-0.2 0.4-0.1 1.2 0.6 0.7l0.8-0.7c0.5 1.2 1.3 0.7 1.7 0.5 4.4-2.8 8.8-6.1 13-9.4l-0.1 1.3 0.5-1.6c0.5 0.5 0.9 0.1 1.1-0.2 0.6-1 1.4-2 2.7-2.9-1.6 4.3-3.5 7.7-5.9 10.5l-1 1.2c0 0.7-0.2 1.6-1 1.7-0.4 0.1-1.2-0.2-1.8 0.4-0.3 0.4 0.7 1.2-0.1 0.6-0.7-0.5-1.4 0-2.2 0.2-0.6 0.2 0.4 0.8 0.6 1.2 0.2 0.4 0.4 0.8 0.3 1.3l-1.1-1.2c-1.3 0.7-2.1 2-3.2 3-0.5 0.4-0.3 1.1-0.3 1.7-0.7 0-1.5-0.2-1.9 0.2-0.3 0.4-0.2 1-0.2 1.6-1-0.1-1.1-1.6-2-1.3-0.9 0.2-1.9 0.3-2.7 0.8 0.6 1.2-1 0.5-0.8 0.7-1.5-0.9-2.8-1.6-4.4-1-3.4-1.1-7.6-0.6-10.7-0.2 0-0.5 0.1-1-0.1-1.1-0.2 0.5-0.8 0.3-0.7 0.3-1.9-1.3-3.8-2.1-5.8-3.2-1.8 0.2-3.5-0.7-4-1.2-1.4-1.3-3-0.6-4.3-0.9-2.8-0.7-3.8-3.6-4.1-5.6-0.2-1-1-1.4-1.3-1.3-1.3-4.2-3.3-8-4.9-11.9-0.4-1-0.3-2-0.3-3.1 0.5 0.2 1 0.1 0.9-0.6-0.5-3.3-1.7-5.8-3-8.2 0.7-3.4 0.8-7.4 2.4-10.4 1.4-2.7 4-4.1 5.8-6.4 0.6-0.8 0.6-1.9 1.2-2.6 2-2 4-4.1 6.2-5.9 1-0.8 2.2 0 3.7-0.3 0.5-1.8 2.5-3.4 4.4-2.9 0.8 0.2 2.4-1.9 2.9-2.1 0.8-0.3 0.4 0.8 0.4 1.5 1.9-1.5 4.5-2.3 6.9-3.2" fill="#096a2e" fill-rule="nonzero" stroke="none" stroke-width="1" stroke-linecap="butt" stroke-linejoin="miter" stroke-miterlimit="10" stroke-dasharray="" stroke-dashoffset="0" font-family="none" font-weight="none" font-size="none" text-anchor="none" style="mix-blend-mode: normal" data-fill-palette-color="tertiary"></path></g><g transform="matrix(1,0,0,1,64,128.40731354429084)"><svg viewBox="0 0 192 103.18537291141828" height="103.18537291141828" width="192"><g><svg viewBox="0 0 192 103.18537291141828" height="103.18537291141828" width="192"><g><svg viewBox="0 0 192.00000000000003 103.1853729114183" height="103.18537291141828" width="192"><g transform="matrix(1,0,0,1,0,61.46466816432775)"><svg viewBox="0 0 192.00000000000003 41.72070474709055" height="41.72070474709055" width="192.00000000000003"><g id="textblocktransform"><svg viewBox="0 0 192.00000000000003 41.72070474709055" height="41.72070474709055" width="192.00000000000003" id="textblock"><g><svg viewBox="0 0 192.00000000000003 26.08655330068125" height="26.08655330068125" width="192.00000000000003"><g transform="matrix(1,0,0,1,0,0)"><svg width="192.00000000000003" viewBox="3.55 -36.35 348.48138671875 47.35" height="26.08655330068125" data-palette-color="#22874a"><g transform="matrix(1,0,0,1,0,0)"><g><svg width="16.434257812499997" viewBox="1.78 -36.36 74.21 36.36" height="8.052" data-palette-color="#22874a" id="scriptelement" x="335.59712890625" y="-8.052"><path d="M12.91-30.02L1.78-30.02 1.78-36.36 31.64-36.36 31.64-30.02 20.51-30.02 20.51 0 12.91 0 12.91-30.02ZM36.57 0L36.57-36.36 46.06-36.36 56.07-11.93 56.5-11.93 66.51-36.36 75.99-36.36 75.99 0 68.53 0 68.53-23.67 68.23-23.67 58.82-0.18 53.74-0.18 44.33-23.76 44.03-23.76 44.03 0 36.57 0Z" opacity="1" transform="matrix(1,0,0,1,0,0)" fill="#22874a" class="undefined-123" data-fill-palette-color="primary" id="yy-123"></path></svg></g></g><path d="M8.85 0L3.55 0 3.55-35 15.4-35Q19.4-35 22-33.63 24.6-32.25 25.85-29.85 27.1-27.45 27.1-24.35L27.1-24.35Q27.1-21.25 25.85-18.85 24.6-16.45 22-15.08 19.4-13.7 15.4-13.7L15.4-13.7 8.85-13.7 8.85 0ZM8.85-30.25L8.85-18.45 15.15-18.45Q18.55-18.45 20.13-20.05 21.7-21.65 21.7-24.35L21.7-24.35Q21.7-27 20.13-28.63 18.55-30.25 15.15-30.25L15.15-30.25 8.85-30.25ZM52.9 0L33.85 0 33.85-4.6 39.9-4.6 39.9-18.55Q39.9-20.2 38.3-20.2L38.3-20.2 34.35-20.2 34.35-24.8 40.3-24.8Q42.35-24.8 43.65-23.63 44.95-22.45 44.95-20.35L44.95-20.35 44.95-19.75 45.2-19.75Q45.75-22.55 47.57-23.98 49.4-25.4 52.9-25.4L52.9-25.4 56.75-25.4 56.75-19.8 51.35-19.8Q48.4-19.8 46.8-17.75 45.2-15.7 45.2-12.85L45.2-12.85 45.2-4.6 52.9-4.6 52.9 0ZM75 0.6L75 0.6Q71.45 0.6 68.65-1 65.84-2.6 64.25-5.53 62.65-8.45 62.65-12.4L62.65-12.4Q62.65-16.35 64.25-19.28 65.84-22.2 68.65-23.8 71.45-25.4 75.05-25.4L75.05-25.4Q78.65-25.4 81.42-23.8 84.2-22.2 85.77-19.28 87.34-16.35 87.34-12.4L87.34-12.4Q87.34-8.45 85.75-5.53 84.15-2.6 81.37-1 78.59 0.6 75 0.6ZM75-4.45L75-4.45Q76.9-4.45 78.5-5.3 80.09-6.15 81.07-7.93 82.05-9.7 82.05-12.4L82.05-12.4Q82.05-15.15 81.07-16.9 80.09-18.65 78.52-19.5 76.95-20.35 75.05-20.35L75.05-20.35Q73.15-20.35 71.55-19.5 69.95-18.65 68.97-16.9 68-15.15 68-12.4L68-12.4Q68-8.3 70.07-6.38 72.15-4.45 75-4.45ZM98.74 11L93.44 11 93.44-24.8 98.04-24.8 98.44-21 98.74-21Q99.74-22.85 101.77-24.13 103.79-25.4 106.59-25.4L106.59-25.4Q109.49-25.4 111.89-23.93 114.29-22.45 115.72-19.58 117.14-16.7 117.14-12.4L117.14-12.4Q117.14-8.15 115.67-5.25 114.19-2.35 111.69-0.88 109.19 0.6 106.09 0.6L106.09 0.6Q103.34 0.6 101.49-0.5 99.64-1.6 98.74-3L98.74-3 98.74 11ZM105.19-4.45L105.19-4.45Q107.99-4.45 109.87-6.45 111.74-8.45 111.74-12.45L111.74-12.45Q111.74-16.45 109.87-18.4 107.99-20.35 105.19-20.35L105.19-20.35Q102.34-20.35 100.47-18.38 98.59-16.4 98.59-12.4L98.59-12.4Q98.59-8.45 100.47-6.45 102.34-4.45 105.19-4.45ZM138.14 0L131.84 0 121.04-35 126.74-35 134.99-7 143.24-35 148.94-35 138.14 0ZM164.49-28.6L164.49-28.6Q162.74-28.6 161.56-29.73 160.39-30.85 160.39-32.5L160.39-32.5Q160.39-34.15 161.56-35.25 162.74-36.35 164.49-36.35L164.49-36.35Q166.29-36.35 167.46-35.25 168.64-34.15 168.64-32.5L168.64-32.5Q168.64-30.85 167.46-29.73 166.29-28.6 164.49-28.6ZM175.44 0L154.54 0 154.54-4.6 162.34-4.6 162.34-18.55Q162.34-20.2 160.74-20.2L160.74-20.2 155.24-20.2 155.24-24.8 161.69-24.8Q164.79-24.8 166.21-23.38 167.64-21.95 167.64-18.85L167.64-18.85 167.64-4.6 175.44-4.6 175.44 0ZM195.29 0.6L195.29 0.6Q191.69 0.6 188.94-1.03 186.19-2.65 184.64-5.55 183.09-8.45 183.09-12.3L183.09-12.3Q183.09-16.2 184.61-19.15 186.14-22.1 188.91-23.75 191.69-25.4 195.34-25.4L195.34-25.4Q198.94-25.4 201.54-23.78 204.14-22.15 205.56-19.45 206.99-16.75 206.99-13.5L206.99-13.5Q206.99-13 206.99-12.43 206.99-11.85 206.94-11.15L206.94-11.15 188.29-11.15Q188.54-7.7 190.54-5.93 192.54-4.15 195.24-4.15L195.24-4.15Q197.59-4.15 198.96-5.13 200.34-6.1 200.99-7.8L200.99-7.8 206.34-7.8Q205.44-4.25 202.59-1.83 199.74 0.6 195.29 0.6ZM195.29-20.8L195.29-20.8Q192.84-20.8 190.94-19.33 189.04-17.85 188.49-15.2L188.49-15.2 201.69-15.2Q201.49-17.7 199.74-19.25 197.99-20.8 195.29-20.8ZM221.23 0L215.78 0 210.38-24.8 215.58-24.8 218.58-7.4 222.13-24.8 227.83-24.8 231.38-7.4 234.38-24.8 239.58-24.8 234.18 0 228.73 0 224.98-17.9 221.23 0ZM255.23 0.6L255.23 0.6Q251.78 0.6 248.98-0.7 246.18-2 244.53-4.53 242.88-7.05 242.73-10.65L242.73-10.65 248.03-10.65Q248.18-7.9 250.06-6.1 251.93-4.3 255.23-4.3L255.23-4.3Q258.48-4.3 260.33-5.9 262.18-7.5 262.18-10.3L262.18-10.3Q262.18-13.4 259.93-14.85 257.68-16.3 254.43-16.3L254.43-16.3 251.33-16.3 251.33-21 253.98-21Q256.93-21 258.83-22.2 260.73-23.4 260.73-25.95L260.73-25.95Q260.73-28.15 259.28-29.43 257.83-30.7 255.18-30.7L255.18-30.7Q252.48-30.7 250.88-29.25 249.28-27.8 249.08-25.55L249.08-25.55 243.83-25.55Q243.98-28.55 245.43-30.8 246.88-33.05 249.38-34.33 251.88-35.6 255.18-35.6L255.18-35.6Q258.78-35.6 261.18-34.38 263.58-33.15 264.78-31.1 265.98-29.05 265.98-26.5L265.98-26.5Q265.98-23.9 264.46-22.03 262.93-20.15 260.78-19.3L260.78-19.3 260.78-19Q263.68-18.2 265.56-16.03 267.43-13.85 267.43-10.2L267.43-10.2Q267.43-7.25 266-4.78 264.58-2.3 261.86-0.85 259.13 0.6 255.23 0.6ZM285.68 0.6L285.68 0.6Q281.98 0.6 279.43-0.78 276.88-2.15 275.3-4.5 273.73-6.85 273-9.88 272.28-12.9 272.28-16.25L272.28-16.25Q272.28-22.05 273.9-26.4 275.53-30.75 278.58-33.18 281.63-35.6 285.93-35.6L285.93-35.6Q289.48-35.6 291.9-34.33 294.33-33.05 295.7-30.83 297.08-28.6 297.38-25.75L297.38-25.75 292.43-25.75Q291.93-28.1 290.18-29.45 288.43-30.8 285.88-30.8L285.88-30.8Q282.53-30.8 280.08-27.63 277.63-24.45 277.33-17.7L277.33-17.7 277.63-17.7Q278.68-19.6 280.95-21.05 283.23-22.5 286.38-22.5L286.38-22.5Q289.43-22.5 291.93-21.08 294.43-19.65 295.9-17.1 297.38-14.55 297.38-11.2L297.38-11.2Q297.38-8.05 295.95-5.35 294.53-2.65 291.9-1.03 289.28 0.6 285.68 0.6ZM285.33-4.2L285.33-4.2Q288.38-4.2 290.25-6.1 292.13-8 292.13-10.95L292.13-10.95Q292.13-13.9 290.25-15.83 288.38-17.75 285.33-17.75L285.33-17.75Q282.28-17.75 280.35-15.85 278.43-13.95 278.43-11L278.43-11Q278.43-8.1 280.35-6.15 282.28-4.2 285.33-4.2ZM314.93 0.6L314.93 0.6Q311.28 0.6 308.58-0.75 305.88-2.1 304.35-4.45 302.83-6.8 302.58-9.75L302.58-9.75 307.98-9.75Q308.48-7.3 310.3-5.8 312.13-4.3 314.98-4.3L314.98-4.3Q318.33-4.3 320.28-6.43 322.23-8.55 322.23-11.9L322.23-11.9Q322.23-15.45 320.23-17.4 318.23-19.35 315.13-19.35L315.13-19.35Q312.63-19.35 310.88-18.2 309.13-17.05 308.13-15.3L308.13-15.3 303.03-15.3 306.03-35 325.08-35 325.08-30.1 310.13-30.1 308.43-21.15 308.78-21.15Q309.83-22.35 311.6-23.15 313.38-23.95 315.83-23.95L315.83-23.95Q319.43-23.95 322-22.4 324.58-20.85 325.98-18.13 327.38-15.4 327.38-11.95L327.38-11.95Q327.38-8.45 325.85-5.6 324.33-2.75 321.53-1.07 318.73 0.6 314.93 0.6Z" opacity="1" transform="matrix(1,0,0,1,0,0)" fill="#22874a" class="wordmark-text-0" data-fill-palette-color="primary" id="text-0"></path></svg></g></svg></g><g transform="matrix(1,0,0,1,0,29.893207504529858)"><svg viewBox="0 0 178.41880224763725 11.827497242560689" height="11.827497242560689" width="178.41880224763725"><g transform="matrix(1,0,0,1,0,0)"><svg width="178.41880224763725" viewBox="0.7 -37.8 753.42 49.949999999999996" height="11.827497242560689" data-palette-color="#ff0000"><path d="M19.1 0L12.05 0 12.05-15 0.7-32.4 0.7-35.4 9.1-35.4 15.1-22.6 16.1-22.6 22.05-35.4 30.55-35.4 30.55-32.4 18.8-14.7 19.1-9.65 19.1 0ZM40.55 0.5L40.55 0.5Q34.45 0.5 31.6-2.7 28.75-5.9 28.75-11.8L28.75-11.8Q28.75-17.75 31.6-20.93 34.45-24.1 40.55-24.1L40.55-24.1Q46.85-24.1 49.57-20.93 52.3-17.75 52.3-11.8L52.3-11.8Q52.3-5.9 49.57-2.7 46.85 0.5 40.55 0.5ZM40.55-4.5L40.55-4.5Q42.6-4.5 43.92-6.1 45.25-7.7 45.25-11.8L45.25-11.8Q45.25-15.9 43.92-17.5 42.6-19.1 40.55-19.1L40.55-19.1Q38.45-19.1 37.12-17.5 35.8-15.9 35.8-11.8L35.8-11.8Q35.8-7.7 37.15-6.1 38.5-4.5 40.55-4.5ZM63.3 0.5L63.3 0.5Q60.3 0.5 58.67-0.65 57.05-1.8 56.42-3.98 55.8-6.15 55.8-9.2L55.8-9.2 55.8-23.65 62.8-23.65 62.8-9Q62.8-6.95 63.57-6 64.34-5.05 66.2-5.05L66.2-5.05Q68.55-5.05 69.92-6.85 71.3-8.65 71.3-11.05L71.3-11.05 71.3-23.65 78.3-23.65 78.3-8.05 79.34-3.05 78.3 0 71.84 0 71.84-2.45 71.34-2.7Q70.7-2.05 69.47-1.3 68.25-0.55 66.67-0.03 65.09 0.5 63.3 0.5ZM91.29 0L84.39 0 84.39-15.65 83.34-20.65 84.39-23.65 89.19-23.65 90.19-22.5Q90.19-22.5 90.87-22.93 91.54-23.35 92.79-23.75 94.04-24.15 95.84-24.15L95.84-24.15Q96.84-24.15 97.84-24 98.84-23.85 99.39-23.6L99.39-23.6 102.64-20.35 99.89-15.45 93.04-18.9 91.29-18.2 91.29 0ZM125.64 0L118.64 0 118.64-27.35 117.64-32.4 118.64-35.4 130.64-35.4Q134.29-35.4 137.21-34.27 140.14-33.15 141.86-30.48 143.59-27.8 143.59-23.1L143.59-23.1Q143.59-18.4 141.74-15.68 139.89-12.95 136.61-11.8 133.34-10.65 129.14-10.65L129.14-10.65 125.64-10.65 125.64-8.05 126.14-3.05 125.64 0ZM125.14-28.9L125.64-17 130.54-17Q133.84-17 135.04-18.73 136.24-20.45 136.24-23.1L136.24-23.1Q136.24-25.9 134.96-27.4 133.69-28.9 130.34-28.9L130.34-28.9 125.14-28.9ZM155.34 0.5L155.34 0.5Q152.09 0.5 149.53-0.65 146.99-1.8 145.53-4.5 144.09-7.2 144.09-11.8L144.09-11.8Q144.09-16.25 145.64-18.95 147.19-21.65 149.74-22.88 152.28-24.1 155.34-24.1L155.34-24.1Q158.69-24.1 160.61-23.35 162.54-22.6 163.54-21.9L163.54-21.9 166.04-13.95 165.04-10.85 151.03-10.85Q151.34-8.2 152.94-6.6 154.53-5 157.84-5L157.84-5Q160.53-5 162.21-5.65 163.89-6.3 164.54-6.65L164.54-6.65 164.54-1.45Q163.04-0.65 160.71-0.08 158.39 0.5 155.34 0.5ZM150.99-14.05L150.99-14.05 158.49-15.05 157.74-18.75Q157.39-18.95 156.76-19.05 156.14-19.15 155.64-19.15L155.64-19.15Q153.39-19.15 152.19-17.57 150.99-16 150.99-14.05ZM177.08 0L170.18 0 170.18-15.65 169.13-20.65 170.18-23.65 174.98-23.65 175.98-22.5Q175.98-22.5 176.66-22.93 177.33-23.35 178.58-23.75 179.83-24.15 181.63-24.15L181.63-24.15Q182.63-24.15 183.63-24 184.63-23.85 185.18-23.6L185.18-23.6 188.43-20.35 185.68-15.45 178.83-18.9 177.08-18.2 177.08 0ZM198.43 12.15L191.43 12.15 191.43-15.1 190.43-20.6 191.98-23.65 197.43-23.65 197.43-21.5 197.93-21.25Q197.93-21.25 198.83-22 199.73-22.75 201.31-23.48 202.88-24.2 204.98-24.2L204.98-24.2Q209.43-24.2 211.96-21.35 214.48-18.5 214.48-12.35L214.48-12.35Q214.48-7.75 213.21-4.93 211.93-2.1 209.78-0.85 207.63 0.4 204.98 0.4L204.98 0.4Q202.38 0.4 200.68-0.08 198.98-0.55 198.43-0.75L198.43-0.75 198.43 12.15ZM201.73-4.9L201.73-4.9Q203.68-4.9 204.83-5.88 205.98-6.85 206.48-8.45 206.98-10.05 206.98-11.9L206.98-11.9Q206.98-13.7 206.58-15.25 206.18-16.8 205.16-17.73 204.13-18.65 202.23-18.65L202.23-18.65 198.43-17.6 198.43-5.55Q198.43-5.55 199.46-5.23 200.48-4.9 201.73-4.9ZM228.73 0.5L228.73 0.5Q225.48 0.5 222.93-0.65 220.38-1.8 218.93-4.5 217.48-7.2 217.48-11.8L217.48-11.8Q217.48-16.25 219.03-18.95 220.58-21.65 223.13-22.88 225.68-24.1 228.73-24.1L228.73-24.1Q232.08-24.1 234-23.35 235.93-22.6 236.93-21.9L236.93-21.9 239.43-13.95 238.43-10.85 224.43-10.85Q224.73-8.2 226.33-6.6 227.93-5 231.23-5L231.23-5Q233.93-5 235.6-5.65 237.28-6.3 237.93-6.65L237.93-6.65 237.93-1.45Q236.43-0.65 234.1-0.08 231.78 0.5 228.73 0.5ZM224.38-14.05L224.38-14.05 231.88-15.05 231.13-18.75Q230.78-18.95 230.15-19.05 229.53-19.15 229.03-19.15L229.03-19.15Q226.78-19.15 225.58-17.57 224.38-16 224.38-14.05ZM250.68 0.5L250.68 0.5Q247.28 0.5 245.73-1 244.18-2.5 244.18-5.55L244.18-5.55 244.18-18.95 241.03-18.95 241.03-22.2 243.68-24.65 247.23-30.85 251.13-30.85 251.13-23.6 257.63-23.6 257.63-18.6 251.13-18.6 251.13-4.9 257.63-4.95 257.63-1Q257.63-1 256.83-0.63 256.03-0.25 254.5 0.13 252.98 0.5 250.68 0.5ZM268.12 0.5L268.12 0.5Q265.12 0.5 263.5-0.65 261.87-1.8 261.25-3.98 260.62-6.15 260.62-9.2L260.62-9.2 260.62-23.65 267.62-23.65 267.62-9Q267.62-6.95 268.4-6 269.17-5.05 271.02-5.05L271.02-5.05Q273.37-5.05 274.75-6.85 276.12-8.65 276.12-11.05L276.12-11.05 276.12-23.65 283.12-23.65 283.12-8.05 284.17-3.05 283.12 0 276.67 0 276.67-2.45 276.17-2.7Q275.52-2.05 274.3-1.3 273.07-0.55 271.5-0.03 269.92 0.5 268.12 0.5ZM295.67 0.5L295.67 0.5Q292.32 0.5 290-1.23 287.67-2.95 287.67-6.6L287.67-6.6Q287.67-10.45 290.12-12.48 292.57-14.5 296.67-14.5L296.67-14.5Q299.67-14.5 301.25-14 302.82-13.5 303.32-13.25L303.32-13.25 303.67-13.55Q303.67-15.05 303.42-16.2 303.17-17.35 302.27-17.98 301.37-18.6 299.47-18.6L299.47-18.6Q296.07-18.6 293.4-18.05 290.72-17.5 289.17-17.05L289.17-17.05 289.17-22.55Q290.72-23.1 293.87-23.58 297.02-24.05 300.67-24.05L300.67-24.05Q303.77-24.05 305.75-23.23 307.72-22.4 308.8-21 309.87-19.6 310.3-17.93 310.72-16.25 310.72-14.6L310.72-14.6 310.72-7.95 311.72-2.9 310.72 0.05 304.17 0.05 304.17-2.4 303.67-2.65Q303.27-2.15 302.3-1.4 301.32-0.65 299.7-0.08 298.07 0.5 295.67 0.5ZM298.42-5.05L298.42-5.05Q300.57-5.05 301.8-5.45 303.02-5.85 303.67-6.25L303.67-6.25 303.67-7.2Q303.67-8.15 302.55-9.1 301.42-10.05 298.87-10.05L298.87-10.05Q296.97-10.05 296.07-9.3 295.17-8.55 295.17-7.4L295.17-7.4Q295.17-6.2 296.02-5.63 296.87-5.05 298.42-5.05ZM323.37 0L316.37 0 316.37-27.4 315.32-32.4 316.37-35.4 323.37-35.4 323.37 0ZM349.21 0L342.21 0 342.21-27.35 341.21-32.4 342.21-35.4 354.21-35.4Q357.86-35.4 360.79-34.27 363.71-33.15 365.44-30.48 367.16-27.8 367.16-23.1L367.16-23.1Q367.16-18.4 365.31-15.68 363.46-12.95 360.19-11.8 356.91-10.65 352.71-10.65L352.71-10.65 349.21-10.65 349.21-8.05 349.71-3.05 349.21 0ZM348.71-28.9L349.21-17 354.11-17Q357.41-17 358.61-18.73 359.81-20.45 359.81-23.1L359.81-23.1Q359.81-25.9 358.54-27.4 357.26-28.9 353.91-28.9L353.91-28.9 348.71-28.9ZM378.11 0L371.21 0 371.21-15.65 370.16-20.65 371.21-23.65 376.01-23.65 377.01-22.5Q377.01-22.5 377.69-22.93 378.36-23.35 379.61-23.75 380.86-24.15 382.66-24.15L382.66-24.15Q383.66-24.15 384.66-24 385.66-23.85 386.21-23.6L386.21-23.6 389.46-20.35 386.71-15.45 379.86-18.9 378.11-18.2 378.11 0ZM402.56 0.5L402.56 0.5Q396.46 0.5 393.61-2.7 390.76-5.9 390.76-11.8L390.76-11.8Q390.76-17.75 393.61-20.93 396.46-24.1 402.56-24.1L402.56-24.1Q408.86-24.1 411.58-20.93 414.31-17.75 414.31-11.8L414.31-11.8Q414.31-5.9 411.58-2.7 408.86 0.5 402.56 0.5ZM402.56-4.5L402.56-4.5Q404.61-4.5 405.93-6.1 407.26-7.7 407.26-11.8L407.26-11.8Q407.26-15.9 405.93-17.5 404.61-19.1 402.56-19.1L402.56-19.1Q400.46-19.1 399.13-17.5 397.81-15.9 397.81-11.8L397.81-11.8Q397.81-7.7 399.16-6.1 400.51-4.5 402.56-4.5ZM425.81 12.15L418.81 12.15 418.81-15.1 417.81-20.6 419.36-23.65 424.81-23.65 424.81-21.5 425.31-21.25Q425.31-21.25 426.21-22 427.11-22.75 428.68-23.48 430.26-24.2 432.36-24.2L432.36-24.2Q436.81-24.2 439.33-21.35 441.86-18.5 441.86-12.35L441.86-12.35Q441.86-7.75 440.58-4.93 439.31-2.1 437.16-0.85 435.01 0.4 432.36 0.4L432.36 0.4Q429.76 0.4 428.06-0.08 426.36-0.55 425.81-0.75L425.81-0.75 425.81 12.15ZM429.11-4.9L429.11-4.9Q431.06-4.9 432.21-5.88 433.36-6.85 433.86-8.45 434.36-10.05 434.36-11.9L434.36-11.9Q434.36-13.7 433.96-15.25 433.56-16.8 432.53-17.73 431.51-18.65 429.61-18.65L429.61-18.65 425.81-17.6 425.81-5.55Q425.81-5.55 426.83-5.23 427.86-4.9 429.11-4.9ZM456.1 0.5L456.1 0.5Q452.85 0.5 450.3-0.65 447.75-1.8 446.3-4.5 444.85-7.2 444.85-11.8L444.85-11.8Q444.85-16.25 446.4-18.95 447.95-21.65 450.5-22.88 453.05-24.1 456.1-24.1L456.1-24.1Q459.45-24.1 461.38-23.35 463.3-22.6 464.3-21.9L464.3-21.9 466.8-13.95 465.8-10.85 451.8-10.85Q452.1-8.2 453.7-6.6 455.3-5 458.6-5L458.6-5Q461.3-5 462.98-5.65 464.65-6.3 465.3-6.65L465.3-6.65 465.3-1.45Q463.8-0.65 461.48-0.08 459.15 0.5 456.1 0.5ZM451.75-14.05L451.75-14.05 459.25-15.05 458.5-18.75Q458.15-18.95 457.53-19.05 456.9-19.15 456.4-19.15L456.4-19.15Q454.15-19.15 452.95-17.57 451.75-16 451.75-14.05ZM477.85 0L470.95 0 470.95-15.65 469.9-20.65 470.95-23.65 475.75-23.65 476.75-22.5Q476.75-22.5 477.43-22.93 478.1-23.35 479.35-23.75 480.6-24.15 482.4-24.15L482.4-24.15Q483.4-24.15 484.4-24 485.4-23.85 485.95-23.6L485.95-23.6 489.2-20.35 486.45-15.45 479.6-18.9 477.85-18.2 477.85 0ZM499.35 0.5L499.35 0.5Q495.95 0.5 494.4-1 492.85-2.5 492.85-5.55L492.85-5.55 492.85-18.95 489.7-18.95 489.7-22.2 492.35-24.65 495.9-30.85 499.8-30.85 499.8-23.6 506.3-23.6 506.3-18.6 499.8-18.6 499.8-4.9 506.3-4.95 506.3-1Q506.3-1 505.5-0.63 504.7-0.25 503.17 0.13 501.65 0.5 499.35 0.5ZM512.35 12.15L512.35 12.15 505.3 9.65 507.3 3.7 514.3 5.7Q515.75 5.7 516.75 4.83 517.75 3.95 518.42 2.63 519.1 1.3 519.4-0.05L519.4-0.05 514.75-0.05 509.25-17.15 508.3-23.65 515.8-23.65 519.55-5.65 520.55-5.65 524.3-23.65 531.8-23.65Q531.8-23.65 531.47-22.08 531.15-20.5 530.57-17.9 530-15.3 529.22-12.18 528.45-9.05 527.6-5.88 526.75-2.7 525.85-0.05L525.85-0.05Q524.5 4.1 522.87 6.8 521.25 9.5 518.8 10.83 516.35 12.15 512.35 12.15ZM558.09 0.5L558.09 0.5Q554.24 0.5 551.54-0.53 548.84-1.55 547.49-2.7L547.49-2.7 547.49-9.6Q549.24-8.6 552.17-7.5 555.09-6.4 558.64-6.4L558.64-6.4Q560.94-6.4 562.07-7.3 563.19-8.2 563.19-9.75L563.19-9.75Q563.19-11.15 562.29-12.05 561.39-12.95 559.59-13.7 557.79-14.45 554.99-15.45L554.99-15.45Q550.99-16.9 548.79-19.2 546.59-21.5 546.59-25.4L546.59-25.4Q546.59-28.15 547.82-30.55 549.04-32.95 551.67-34.43 554.29-35.9 558.39-35.9L558.39-35.9Q559.99-35.9 561.57-35.77 563.14-35.65 564.24-35.45L564.24-35.45 569.89-31.3 567.39-26.2 558.24-29.45Q556.44-29.45 555.27-28.58 554.09-27.7 554.09-26.1L554.09-26.1Q554.09-24.1 555.77-23.05 557.44-22 560.49-21L560.49-21Q566.29-19.1 568.64-16.43 570.99-13.75 570.99-10.15L570.99-10.15Q570.99-7.25 569.79-4.83 568.59-2.4 565.77-0.95 562.94 0.5 558.09 0.5ZM585.89 0.5L585.89 0.5Q579.79 0.5 576.94-2.7 574.09-5.9 574.09-11.8L574.09-11.8Q574.09-17.75 576.94-20.93 579.79-24.1 585.89-24.1L585.89-24.1Q592.19-24.1 594.91-20.93 597.64-17.75 597.64-11.8L597.64-11.8Q597.64-5.9 594.91-2.7 592.19 0.5 585.89 0.5ZM585.89-4.5L585.89-4.5Q587.94-4.5 589.26-6.1 590.59-7.7 590.59-11.8L590.59-11.8Q590.59-15.9 589.26-17.5 587.94-19.1 585.89-19.1L585.89-19.1Q583.79-19.1 582.46-17.5 581.14-15.9 581.14-11.8L581.14-11.8Q581.14-7.7 582.49-6.1 583.84-4.5 585.89-4.5ZM609.78 0L602.78 0 602.78-17.7 600.13-21.2 602.78-23.6Q602.53-24.45 602.41-25.88 602.28-27.3 602.28-28.2L602.28-28.2Q602.28-32.45 604.21-35.13 606.13-37.8 610.58-37.8L610.58-37.8Q611.98-37.8 613.56-37.68 615.13-37.55 616.28-37.25L616.28-37.25 621.13-34.2 618.78-29.25 612.03-32.25Q610.33-32.25 609.53-30.98 608.73-29.7 608.73-27.8L608.73-27.8Q608.73-26.55 609.08-25.28 609.43-24 609.78-23.6L609.78-23.6 617.78-23.6 617.78-19.1 609.78-19.1 609.78-8.1 610.28-3.05 609.78 0ZM629.28 0.5L629.28 0.5Q625.88 0.5 624.33-1 622.78-2.5 622.78-5.55L622.78-5.55 622.78-18.95 619.63-18.95 619.63-22.2 622.28-24.65 625.83-30.85 629.73-30.85 629.73-23.6 636.23-23.6 636.23-18.6 629.73-18.6 629.73-4.9 636.23-4.95 636.23-1Q636.23-1 635.43-0.63 634.63-0.25 633.11 0.13 631.58 0.5 629.28 0.5ZM655.08 0L646.08 0 639.23-17.1 638.23-23.6 645.73-23.6 649.98-7 650.98-7 655.28-23.6 664.23-23.6 668.48-7 669.48-7 673.78-23.6 681.23-23.6 680.23-17.1 673.33 0 664.33 0 660.23-17.1 659.23-17.1 655.08 0ZM691.73 0.5L691.73 0.5Q688.38 0.5 686.05-1.23 683.73-2.95 683.73-6.6L683.73-6.6Q683.73-10.45 686.18-12.48 688.63-14.5 692.73-14.5L692.73-14.5Q695.73-14.5 697.3-14 698.88-13.5 699.38-13.25L699.38-13.25 699.73-13.55Q699.73-15.05 699.48-16.2 699.23-17.35 698.33-17.98 697.43-18.6 695.53-18.6L695.53-18.6Q692.13-18.6 689.45-18.05 686.78-17.5 685.23-17.05L685.23-17.05 685.23-22.55Q686.78-23.1 689.93-23.58 693.08-24.05 696.73-24.05L696.73-24.05Q699.83-24.05 701.8-23.23 703.78-22.4 704.85-21 705.93-19.6 706.35-17.93 706.78-16.25 706.78-14.6L706.78-14.6 706.78-7.95 707.78-2.9 706.78 0.05 700.23 0.05 700.23-2.4 699.73-2.65Q699.33-2.15 698.35-1.4 697.38-0.65 695.75-0.08 694.13 0.5 691.73 0.5ZM694.48-5.05L694.48-5.05Q696.63-5.05 697.85-5.45 699.08-5.85 699.73-6.25L699.73-6.25 699.73-7.2Q699.73-8.15 698.6-9.1 697.48-10.05 694.93-10.05L694.93-10.05Q693.03-10.05 692.13-9.3 691.23-8.55 691.23-7.4L691.23-7.4Q691.23-6.2 692.08-5.63 692.93-5.05 694.48-5.05ZM719.52 0L712.62 0 712.62-15.65 711.57-20.65 712.62-23.65 717.42-23.65 718.42-22.5Q718.42-22.5 719.1-22.93 719.77-23.35 721.02-23.75 722.27-24.15 724.07-24.15L724.07-24.15Q725.07-24.15 726.07-24 727.07-23.85 727.62-23.6L727.62-23.6 730.87-20.35 728.12-15.45 721.27-18.9 719.52-18.2 719.52 0ZM743.42 0.5L743.42 0.5Q740.17 0.5 737.62-0.65 735.07-1.8 733.62-4.5 732.17-7.2 732.17-11.8L732.17-11.8Q732.17-16.25 733.72-18.95 735.27-21.65 737.82-22.88 740.37-24.1 743.42-24.1L743.42-24.1Q746.77-24.1 748.7-23.35 750.62-22.6 751.62-21.9L751.62-21.9 754.12-13.95 753.12-10.85 739.12-10.85Q739.42-8.2 741.02-6.6 742.62-5 745.92-5L745.92-5Q748.62-5 750.3-5.65 751.97-6.3 752.62-6.65L752.62-6.65 752.62-1.45Q751.12-0.65 748.8-0.08 746.47 0.5 743.42 0.5ZM739.07-14.05L739.07-14.05 746.57-15.05 745.82-18.75Q745.47-18.95 744.85-19.05 744.22-19.15 743.72-19.15L743.72-19.15Q741.47-19.15 740.27-17.57 739.07-16 739.07-14.05Z" opacity="1" transform="matrix(1,0,0,1,0,0)" fill="#ff0000" class="slogan-text-1" data-fill-palette-color="secondary" id="text-1"></path></svg></g></svg></g></svg></g></svg></g><g transform="matrix(1,0,0,1,67.93556434084147,0)"><svg viewBox="0 0 56.128871318317096 57.65801396047914" height="57.65801396047914" width="56.128871318317096"><g><svg xmlns="http://www.w3.org/2000/svg" xmlns:xlink="http://www.w3.org/1999/xlink" version="1.1" x="0" y="0" viewBox="3.9562254101114207 2.8000000000000003 91.99377458988857 94.50000000000001" style="enable-background:new 0 0 100 100;" xml:space="preserve" height="57.65801396047914" width="56.128871318317096" class="icon-icon-0" data-fill-palette-color="accent" id="icon-0"><path d="M93.9 42.5c-0.3-2.8-2.8-4.8-5.6-4.5 0 0 0 0 0 0-2.8 0.3-4.8 2.8-4.6 5.6l1.4 15.2L79.4 68l-2.8-0.1 3.1-7.4c1-2.4-0.1-5.2-2.4-6.4l0 0c-2.4-1.2-5.2-0.3-6.6 2l-8.7 14.5c-0.7 1.1-1 2.3-1 3.5l1.6 21.8c0.1 0.8 0.7 1.4 1.5 1.4h16.6c0.8 0 1.5-0.7 1.5-1.5 0-0.1 0-0.1 0-0.2l-1.5-10.7 14-18.1c1-1.2 1.4-2.8 1.2-4.3L93.9 42.5zM92.5 64.9L78 83.5c-0.2 0.3-0.4 0.7-0.3 1.1l1.3 9.6H65.6l-1.5-20.4c0-0.6 0.1-1.3 0.5-1.8l8.7-14.6c0.6-0.9 1.7-1.3 2.7-0.8l0 0c1 0.5 1.4 1.6 1 2.6l-4 9.4c-0.3 0.8 0 1.6 0.8 2 0.2 0.1 0.3 0.1 0.5 0.1l5.8 0.3c0.5 0 1.1-0.2 1.3-0.7L87.9 60c0.2-0.3 0.2-0.6 0.2-0.9l-1.5-15.7c-0.1-1.2 0.8-2.2 1.9-2.3 0 0 0 0 0.1 0 1.1-0.1 2.1 0.6 2.2 1.7 0 0 0 0 0 0.1l2.2 20C93.1 63.6 92.9 64.3 92.5 64.9z" fill="#22874a" data-fill-palette-color="accent"></path><path d="M18.1 96.7c0.3 0.3 0.7 0.5 1.1 0.5h16.6c0.8 0 1.4-0.6 1.5-1.4L38.8 74c0.1-1.2-0.3-2.4-0.9-3.5l-8.7-14.6c-1.4-2.3-4.2-3.1-6.6-2l0 0c-2.4 1.2-3.4 4-2.4 6.5l3.1 7.4L20.5 68l-5.6-9.2 1.4-15.2c0.2-2.8-1.8-5.3-4.7-5.6-2.7-0.3-5.2 1.7-5.5 4.4 0 0 0 0 0 0L4 62.5c-0.2 1.5 0.3 3.1 1.2 4.3l14 18.1-1.5 10.7C17.7 96 17.8 96.4 18.1 96.7zM7.5 64.9c-0.5-0.6-0.7-1.4-0.6-2.1l2.2-20c0.1-1.1 1.2-1.9 2.3-1.8 0 0 0 0 0 0 1.2 0.1 2 1.1 1.9 2.3 0 0 0 0 0 0l-1.5 15.8c0 0.3 0 0.6 0.2 0.9l6.3 10.3c0.3 0.5 0.8 0.7 1.4 0.7l5.8-0.3c0.8 0 1.5-0.7 1.4-1.6 0-0.2 0-0.3-0.1-0.5l-4-9.4c-0.4-1 0-2.2 1-2.6l0 0c1-0.5 2.1-0.1 2.7 0.8l8.7 14.7c0.3 0.5 0.5 1.1 0.5 1.7l-1.4 20.5H20.9l1.3-9.6c0.1-0.4-0.1-0.8-0.3-1.1L7.5 64.9z" fill="#22874a" data-fill-palette-color="accent"></path><path d="M70 47.9V22.4l5.2 4.2c0.6 0.5 1.6 0.4 2.1-0.2 0.5-0.6 0.4-1.6-0.2-2.1L51 3.1c-0.6-0.4-1.3-0.4-1.9 0L22.9 24.4c-0.6 0.5-0.7 1.5-0.2 2.1 0.5 0.6 1.5 0.7 2.1 0.2l5.2-4.2v25.5c0 0.8 0.7 1.5 1.5 1.5h37C69.3 49.4 70 48.8 70 47.9zM54 46.4h-8V33.3h8V46.4zM57 46.4V31.8c0-0.8-0.7-1.5-1.5-1.5h-11c-0.8 0-1.5 0.7-1.5 1.5v14.7H33V20L50 6.2 67 20v26.4H57z" fill="#22874a" data-fill-palette-color="accent"></path></svg></g></svg></g><g></g></svg></g></svg></g></svg></g></svg></g><defs></defs></svg><rect width="320" height="360" fill="none" stroke="none" visibility="hidden"></rect></g></svg></g></svg>